<svg width="1335" height="668" viewBox="0 0 1335 668" fill="none" xmlns="http://www.w3.org/2000/svg">
<rect width="1333" height="667" transform="translate(1 1)" fill="white"/>
<path d="M1 624.5V495.969C1 492.298 5.53272 490.566 7.98097 493.302L8.48097 493.861C9.13719 494.595 9.5 495.544 9.5 496.528V620.5C9.5 622.709 11.2909 624.5 13.5 624.5H18.5C20.7091 624.5 22.5 622.709 22.5 620.5V490.657C22.5 487.093 26.8086 485.309 29.3284 487.828L29.8284 488.328C30.5786 489.079 31 490.096 31 491.157V620.5C31 622.709 32.7909 624.5 35 624.5H140.5C142.709 624.5 144.5 622.709 144.5 620.5V464.259C144.5 461.775 146.741 459.891 149.188 460.319L171.312 464.181C173.759 464.609 176 462.725 176 460.241V449.465C176 446.62 178.886 444.684 181.518 445.764L189.982 449.236C192.614 450.316 195.5 448.38 195.5 445.535V394.312C195.5 391.508 198.31 389.574 200.929 390.576L241.071 405.924C243.69 406.926 246.5 404.992 246.5 402.188V365.445C246.5 364.388 248.017 364.219 248.25 365.25V365.25C248.483 366.281 250 366.112 250 365.055V54.5L254.965 620.535C254.984 622.73 256.77 624.5 258.965 624.5H267C269.209 624.5 271 622.709 271 620.5V422.944C271 418.723 276.69 417.38 278.578 421.155L290.591 445.182C290.86 445.72 291.004 446.313 291.013 446.915L293.445 620.556C293.475 622.743 295.257 624.5 297.444 624.5H302C304.209 624.5 306 622.709 306 620.5V489.946C306 486.489 310.09 484.66 312.667 486.965L314.167 488.307C315.015 489.066 315.5 490.15 315.5 491.288V620.5C315.5 622.709 317.291 624.5 319.5 624.5H325.5C327.709 624.5 329.5 622.709 329.5 620.5V478.998C329.5 476.995 330.981 475.301 332.966 475.033L353.286 472.298C354.662 472.113 355.843 471.227 356.407 469.958L356.86 468.94C357.249 468.064 358.117 467.5 359.076 467.5V467.5C360.415 467.5 361.5 466.415 361.5 465.076V454.681C361.5 452.223 363.696 450.347 366.124 450.73L370.376 451.401C370.789 451.467 371.211 451.467 371.624 451.401L377.266 450.511C379.147 450.214 380.558 448.632 380.639 446.729L382.715 397.722C382.844 394.691 386.168 392.901 388.77 394.462L394.55 397.93C395.172 398.303 395.883 398.5 396.608 398.5H400.024C401.79 398.5 403.348 399.659 403.855 401.351L410.331 422.938C410.443 423.311 410.5 423.698 410.5 424.087V620.5C410.5 622.709 412.291 624.5 414.5 624.5H422.5C424.709 624.5 426.5 622.709 426.5 620.5V487.783C426.5 484.135 430.984 482.391 433.449 485.08L436.449 488.353C437.125 489.091 437.5 490.055 437.5 491.056V620.5C437.5 622.709 439.291 624.5 441.5 624.5H449.5C451.709 624.5 453.5 622.709 453.5 620.5V490.943C453.5 487.339 457.89 485.573 460.386 488.172L464.386 492.339C465.101 493.084 465.5 494.077 465.5 495.109V620.5C465.5 622.709 467.291 624.5 469.5 624.5H478.5C480.709 624.5 482.5 622.709 482.5 620.5V489.19C482.5 485.192 487.718 483.668 489.871 487.037L493.371 492.515C493.782 493.158 494 493.906 494 494.669V620.5C494 622.709 495.791 624.5 498 624.5H505.5C507.709 624.5 509.5 622.709 509.5 620.5V491.256C509.5 487.611 513.976 485.865 516.444 488.548L519.944 492.352C520.623 493.09 521 494.057 521 495.06V620.5C521 622.709 522.791 624.5 525 624.5H533C535.209 624.5 537 622.709 537 620.5V575.5C537 574.395 537.895 573.5 539 573.5V573.5C540.105 573.5 541 572.605 541 571.5V487.265C541 484.442 544.022 482.648 546.5 484V484C548.978 485.352 552 483.558 552 480.735V69.0012C552 64.9408 557.753 64.1351 558.868 68.0393V68.0393C558.956 68.345 559.001 68.6612 559.003 68.9792L562.486 622.257C562.494 623.498 563.502 624.5 564.743 624.5V624.5C565.989 624.5 567 623.489 567 622.243V416.244C567 412.904 570.852 411.035 573.475 413.102L593.525 428.898C596.148 430.965 600 429.096 600 425.756V399.54C600 396.149 603.955 394.296 606.561 396.467L611.439 400.533C614.045 402.704 618 400.851 618 397.46V330.5C618 328.291 619.791 326.5 622 326.5H631.197C632.623 326.5 633.941 327.259 634.656 328.491L642.194 341.472C642.397 341.822 642.652 342.139 642.95 342.412L647.219 346.326C648.036 347.075 648.506 348.129 648.516 349.238L650.964 620.536C650.984 622.731 652.769 624.5 654.964 624.5H677.5C679.709 624.5 681.5 622.709 681.5 620.5V484.092C681.5 480.239 686.413 478.614 688.711 481.707L693.745 488.484C694.236 489.145 694.511 489.942 694.533 490.765L697.899 620.604C697.955 622.772 699.729 624.5 701.898 624.5H806.5C808.709 624.5 810.5 622.709 810.5 620.5V469.384C810.5 468.191 811.033 467.06 811.952 466.3L820.409 459.314C821.407 458.49 822.743 458.199 823.993 458.535L837.463 462.149C840.004 462.83 842.5 460.916 842.5 458.285V450.856C842.5 448.339 844.796 446.448 847.266 446.93L858.234 449.07C860.704 449.552 863 447.661 863 445.144V399.554C863 396.686 865.93 394.75 868.569 395.875L894.569 406.963C896.043 407.592 897 409.04 897 410.643V620.5C897 622.709 898.791 624.5 901 624.5H911.5C913.709 624.5 915.5 622.709 915.5 620.5V490.943C915.5 487.339 919.89 485.573 922.386 488.172L926.386 492.339C927.101 493.084 927.5 494.077 927.5 495.109V620.5C927.5 622.709 929.291 624.5 931.5 624.5H939.5C941.709 624.5 943.5 622.709 943.5 620.5V490.943C943.5 487.339 947.89 485.573 950.386 488.172L954.386 492.339C955.101 493.084 955.5 494.077 955.5 495.109V620.5C955.5 622.709 957.291 624.5 959.5 624.5H968.5C970.709 624.5 972.5 622.709 972.5 620.5V493.27C972.5 489.154 977.968 487.721 979.986 491.309L984.897 500.039C985.396 500.926 986.661 500.961 987.208 500.102V500.102C987.915 498.991 989.632 499.45 989.69 500.765L992 552.5L994 48L1000.5 618.5L1006.27 416.024C1006.37 412.724 1010.19 410.952 1012.77 413.015L1027.89 425.11C1030.44 427.149 1034.22 425.441 1034.38 422.181L1035.63 396.612C1035.79 393.392 1039.49 391.671 1042.05 393.629L1046.57 397.083C1049.2 399.096 1053 397.219 1053 393.906V325C1053 321.704 1056.76 319.822 1059.4 321.8L1071.93 331.2C1072.63 331.719 1073.47 332 1074.33 332H1085C1087.21 332 1089 333.791 1089 336V336.254C1089 338.146 1090.32 339.779 1092.18 340.169L1116.31 345.251C1117.09 345.413 1117.89 345.343 1118.62 345.05L1131.06 340.076C1131.99 339.705 1133.02 339.694 1133.95 340.044L1147.65 345.181C1148.21 345.391 1148.81 345.473 1149.4 345.421L1176.34 343.058C1176.78 343.02 1177.22 343.054 1177.65 343.159L1212.16 351.67C1213.03 351.884 1213.94 351.801 1214.76 351.434L1231.95 343.697C1232.94 343.252 1234.07 343.228 1235.08 343.631L1246.01 348.004C1247.52 348.607 1248.51 350.059 1248.52 351.682L1250.96 620.536C1250.98 622.731 1252.77 624.5 1254.96 624.5H1257.5C1259.71 624.5 1261.5 622.709 1261.5 620.5V614.25C1261.5 613.007 1262.51 612 1263.75 612V612C1264.99 612 1266 613.007 1266 614.25V622.25C1266 623.493 1267.01 624.5 1268.25 624.5V624.5C1269.49 624.5 1270.5 623.493 1270.5 622.25V616.954C1270.5 615.47 1272.42 614.887 1273.25 616.122V616.122C1273.41 616.369 1273.5 616.658 1273.5 616.954V622C1273.5 623.381 1274.62 624.5 1276 624.5V624.5C1277.38 624.5 1278.5 623.381 1278.5 622V618.15C1278.5 616.213 1280.98 615.408 1282.12 616.974V616.974C1282.37 617.316 1282.5 617.728 1282.5 618.15V622.4C1282.5 623.56 1283.44 624.5 1284.6 624.5H1285.3C1285.98 624.5 1286.55 623.984 1286.62 623.307V623.307C1286.77 621.794 1288.94 621.688 1289.24 623.179L1289.28 623.407C1289.41 624.043 1289.97 624.5 1290.61 624.5H1291.3C1292.52 624.5 1293.5 623.516 1293.5 622.302V486.919C1293.5 483.033 1298.48 481.429 1300.75 484.584L1304.28 489.494C1304.75 490.149 1305.01 490.932 1305.03 491.739L1307.91 620.59C1307.96 622.763 1309.74 624.5 1311.91 624.5H1317.1C1319.27 624.5 1321.04 622.768 1321.1 620.598L1324.27 490.331C1324.36 486.815 1328.61 485.113 1331.1 487.6L1332.83 489.328C1333.58 490.079 1334 491.096 1334 492.157V624.5" stroke="#444CE7" stroke-width="2" stroke-linejoin="round"/>
<g filter="url(#filter0_d_755_18949)">
<rect x="191" y="141" width="320" height="86" rx="4" fill="white" shape-rendering="crispEdges"/>
<path d="M216.159 179V170.273H218.976C219.595 170.273 220.112 170.392 220.527 170.631C220.945 170.866 221.259 171.188 221.469 171.594C221.682 172 221.788 172.457 221.788 172.966C221.788 173.474 221.683 173.933 221.473 174.342C221.263 174.749 220.95 175.071 220.536 175.31C220.121 175.545 219.605 175.663 218.989 175.663H216.773V174.947H218.967C219.425 174.947 219.804 174.862 220.105 174.692C220.406 174.518 220.631 174.283 220.778 173.984C220.929 173.686 221.004 173.347 221.004 172.966C221.004 172.585 220.929 172.246 220.778 171.947C220.631 171.649 220.405 171.415 220.101 171.244C219.8 171.074 219.418 170.989 218.955 170.989H216.956V179H216.159ZM226.077 179.136C225.467 179.136 224.938 178.994 224.492 178.71C224.046 178.423 223.701 178.027 223.457 177.521C223.215 177.013 223.094 176.428 223.094 175.766C223.094 175.107 223.215 174.521 223.457 174.01C223.701 173.496 224.038 173.094 224.467 172.804C224.898 172.511 225.397 172.365 225.962 172.365C226.317 172.365 226.66 172.43 226.989 172.561C227.319 172.689 227.614 172.886 227.876 173.153C228.14 173.418 228.349 173.751 228.502 174.155C228.656 174.555 228.732 175.03 228.732 175.578V175.953H223.619V175.284H227.957C227.957 174.864 227.871 174.486 227.701 174.151C227.533 173.812 227.299 173.545 226.998 173.349C226.7 173.153 226.354 173.055 225.962 173.055C225.548 173.055 225.183 173.166 224.867 173.388C224.552 173.609 224.305 173.902 224.126 174.266C223.95 174.629 223.86 175.027 223.857 175.459V175.859C223.857 176.379 223.947 176.834 224.126 177.223C224.308 177.609 224.565 177.909 224.897 178.122C225.229 178.335 225.623 178.442 226.077 178.442C226.387 178.442 226.658 178.393 226.891 178.297C227.127 178.2 227.325 178.071 227.484 177.909C227.646 177.744 227.768 177.564 227.85 177.368L228.57 177.602C228.471 177.878 228.308 178.132 228.08 178.365C227.856 178.598 227.575 178.786 227.237 178.928C226.901 179.067 226.515 179.136 226.077 179.136ZM230.404 179V172.455H231.141V173.46H231.196C231.327 173.131 231.554 172.865 231.878 172.663C232.205 172.459 232.574 172.357 232.986 172.357C233.049 172.357 233.118 172.358 233.195 172.361C233.272 172.364 233.336 172.366 233.387 172.369V173.141C233.353 173.135 233.293 173.126 233.208 173.115C233.123 173.104 233.03 173.098 232.931 173.098C232.59 173.098 232.286 173.17 232.019 173.315C231.755 173.457 231.546 173.655 231.392 173.908C231.239 174.161 231.162 174.449 231.162 174.773V179H230.404ZM234.69 179V172.455H235.452V179H234.69ZM235.077 171.33C234.921 171.33 234.788 171.277 234.677 171.172C234.566 171.064 234.511 170.935 234.511 170.784C234.511 170.634 234.566 170.506 234.677 170.401C234.788 170.293 234.921 170.239 235.077 170.239C235.234 170.239 235.367 170.293 235.478 170.401C235.589 170.506 235.644 170.634 235.644 170.784C235.644 170.935 235.589 171.064 235.478 171.172C235.367 171.277 235.234 171.33 235.077 171.33ZM240.002 179.136C239.437 179.136 238.937 178.993 238.502 178.706C238.071 178.419 237.733 178.023 237.488 177.517C237.244 177.009 237.122 176.422 237.122 175.757C237.122 175.087 237.244 174.497 237.488 173.989C237.733 173.477 238.071 173.08 238.502 172.795C238.937 172.509 239.437 172.365 240.002 172.365C240.568 172.365 241.066 172.509 241.498 172.795C241.93 173.082 242.268 173.48 242.512 173.989C242.76 174.497 242.883 175.087 242.883 175.757C242.883 176.422 242.761 177.009 242.517 177.517C242.272 178.023 241.933 178.419 241.498 178.706C241.066 178.993 240.568 179.136 240.002 179.136ZM240.002 178.442C240.457 178.442 240.842 178.32 241.157 178.075C241.473 177.831 241.711 177.506 241.873 177.099C242.038 176.693 242.12 176.246 242.12 175.757C242.12 175.268 242.038 174.82 241.873 174.411C241.711 174.001 241.473 173.673 241.157 173.426C240.842 173.179 240.457 173.055 240.002 173.055C239.551 173.055 239.166 173.179 238.848 173.426C238.532 173.673 238.292 174.001 238.127 174.411C237.966 174.82 237.885 175.268 237.885 175.757C237.885 176.246 237.966 176.693 238.127 177.099C238.292 177.506 238.532 177.831 238.848 178.075C239.163 178.32 239.548 178.442 240.002 178.442ZM246.905 179.136C246.368 179.136 245.898 178.994 245.494 178.71C245.091 178.426 244.776 178.03 244.548 177.521C244.324 177.013 244.212 176.42 244.212 175.744C244.212 175.071 244.324 174.482 244.548 173.976C244.776 173.467 245.092 173.072 245.499 172.791C245.905 172.507 246.378 172.365 246.918 172.365C247.315 172.365 247.646 172.436 247.911 172.578C248.175 172.717 248.386 172.891 248.545 173.098C248.705 173.305 248.828 173.507 248.916 173.703H248.984V170.273H249.747V179H249.006V177.786H248.916C248.828 177.984 248.703 178.189 248.541 178.399C248.379 178.607 248.165 178.781 247.898 178.923C247.634 179.065 247.303 179.136 246.905 179.136ZM246.994 178.442C247.418 178.442 247.778 178.327 248.077 178.097C248.375 177.864 248.602 177.544 248.759 177.138C248.918 176.729 248.997 176.26 248.997 175.732C248.997 175.209 248.919 174.747 248.763 174.347C248.607 173.943 248.379 173.628 248.081 173.401C247.783 173.17 247.42 173.055 246.994 173.055C246.557 173.055 246.188 173.175 245.886 173.413C245.588 173.649 245.361 173.969 245.205 174.372C245.051 174.776 244.974 175.229 244.974 175.732C244.974 176.24 245.053 176.699 245.209 177.108C245.365 177.517 245.592 177.842 245.891 178.084C246.192 178.322 246.56 178.442 246.994 178.442ZM251.916 179V172.455H252.679V179H251.916ZM252.304 171.33C252.148 171.33 252.014 171.277 251.903 171.172C251.793 171.064 251.737 170.935 251.737 170.784C251.737 170.634 251.793 170.506 251.903 170.401C252.014 170.293 252.148 170.239 252.304 170.239C252.46 170.239 252.594 170.293 252.705 170.401C252.815 170.506 252.871 170.634 252.871 170.784C252.871 170.935 252.815 171.064 252.705 171.172C252.594 171.277 252.46 171.33 252.304 171.33ZM257.242 179.136C256.657 179.136 256.147 178.99 255.712 178.697C255.28 178.405 254.945 178.004 254.706 177.496C254.468 176.987 254.348 176.408 254.348 175.757C254.348 175.101 254.469 174.517 254.711 174.006C254.955 173.494 255.293 173.094 255.725 172.804C256.157 172.511 256.658 172.365 257.229 172.365C257.667 172.365 258.063 172.45 258.418 172.621C258.773 172.788 259.066 173.026 259.296 173.332C259.529 173.636 259.675 173.991 259.735 174.398H258.968C258.888 174.028 258.696 173.713 258.392 173.452C258.091 173.187 257.708 173.055 257.242 173.055C256.824 173.055 256.455 173.169 256.134 173.396C255.813 173.621 255.561 173.935 255.38 174.338C255.201 174.739 255.111 175.203 255.111 175.732C255.111 176.263 255.199 176.733 255.375 177.142C255.551 177.548 255.799 177.866 256.117 178.097C256.438 178.327 256.813 178.442 257.242 178.442C257.532 178.442 257.796 178.388 258.034 178.28C258.276 178.169 258.478 178.013 258.64 177.811C258.804 177.609 258.915 177.369 258.972 177.091H259.739C259.682 177.486 259.542 177.838 259.317 178.148C259.096 178.455 258.807 178.696 258.452 178.872C258.1 179.048 257.696 179.136 257.242 179.136ZM266.568 179.149C266.173 179.149 265.812 179.072 265.485 178.919C265.159 178.763 264.899 178.538 264.706 178.246C264.512 177.95 264.416 177.592 264.416 177.172C264.416 176.848 264.477 176.575 264.599 176.354C264.721 176.132 264.895 175.95 265.119 175.808C265.343 175.666 265.609 175.554 265.916 175.472C266.223 175.389 266.561 175.325 266.93 175.28C267.297 175.234 267.606 175.195 267.859 175.161C268.115 175.126 268.309 175.072 268.443 174.999C268.576 174.925 268.643 174.805 268.643 174.641V174.487C268.643 174.041 268.51 173.69 268.243 173.435C267.978 173.176 267.598 173.047 267.1 173.047C266.629 173.047 266.244 173.151 265.946 173.358C265.65 173.565 265.443 173.81 265.324 174.091L264.603 173.831C264.751 173.473 264.956 173.187 265.217 172.974C265.478 172.759 265.771 172.604 266.095 172.51C266.419 172.413 266.747 172.365 267.079 172.365C267.329 172.365 267.589 172.398 267.859 172.463C268.132 172.528 268.385 172.642 268.618 172.804C268.85 172.963 269.039 173.186 269.184 173.473C269.329 173.757 269.402 174.118 269.402 174.555V179H268.643V177.964H268.596C268.505 178.158 268.37 178.345 268.191 178.527C268.012 178.709 267.788 178.858 267.518 178.974C267.248 179.091 266.931 179.149 266.568 179.149ZM266.67 178.455C267.074 178.455 267.423 178.365 267.718 178.186C268.014 178.007 268.241 177.77 268.4 177.474C268.562 177.176 268.643 176.848 268.643 176.49V175.544C268.586 175.598 268.491 175.646 268.358 175.689C268.227 175.732 268.075 175.77 267.902 175.804C267.731 175.835 267.561 175.862 267.39 175.885C267.22 175.908 267.066 175.928 266.93 175.945C266.561 175.99 266.245 176.061 265.984 176.158C265.723 176.254 265.522 176.388 265.383 176.558C265.244 176.726 265.174 176.942 265.174 177.206C265.174 177.604 265.316 177.912 265.6 178.131C265.885 178.347 266.241 178.455 266.67 178.455ZM271.419 179V172.455H272.157V173.46H272.225C272.355 173.122 272.573 172.857 272.877 172.663C273.184 172.467 273.551 172.369 273.98 172.369C274.432 172.369 274.803 172.476 275.093 172.689C275.385 172.899 275.604 173.189 275.749 173.558H275.804C275.952 173.195 276.192 172.906 276.525 172.693C276.86 172.477 277.266 172.369 277.743 172.369C278.351 172.369 278.831 172.561 279.184 172.945C279.536 173.325 279.712 173.882 279.712 174.615V179H278.953V174.615C278.953 174.098 278.821 173.71 278.557 173.452C278.293 173.193 277.945 173.064 277.513 173.064C277.013 173.064 276.628 173.217 276.358 173.524C276.088 173.831 275.953 174.22 275.953 174.692V179H275.178V174.547C275.178 174.104 275.054 173.746 274.807 173.473C274.56 173.2 274.212 173.064 273.763 173.064C273.462 173.064 273.191 173.138 272.949 173.286C272.711 173.433 272.522 173.639 272.382 173.903C272.246 174.165 272.178 174.466 272.178 174.807V179H271.419ZM281.72 181.455V172.455H282.457V173.703H282.547C282.638 173.507 282.763 173.307 282.922 173.102C283.081 172.895 283.291 172.72 283.553 172.578C283.817 172.436 284.149 172.365 284.55 172.365C285.089 172.365 285.561 172.507 285.964 172.791C286.371 173.072 286.686 173.467 286.911 173.976C287.138 174.482 287.251 175.071 287.251 175.744C287.251 176.42 287.138 177.013 286.911 177.521C286.686 178.03 286.371 178.426 285.964 178.71C285.561 178.994 285.092 179.136 284.558 179.136C284.163 179.136 283.832 179.065 283.565 178.923C283.301 178.781 283.087 178.607 282.922 178.399C282.76 178.189 282.635 177.984 282.547 177.786H282.479V181.455H281.72ZM282.47 175.732C282.47 176.26 282.548 176.729 282.705 177.138C282.864 177.544 283.091 177.864 283.386 178.097C283.685 178.327 284.045 178.442 284.469 178.442C284.903 178.442 285.27 178.322 285.568 178.084C285.869 177.842 286.098 177.517 286.254 177.108C286.413 176.699 286.493 176.24 286.493 175.732C286.493 175.229 286.415 174.776 286.259 174.372C286.105 173.969 285.878 173.649 285.577 173.413C285.276 173.175 284.906 173.055 284.469 173.055C284.043 173.055 283.68 173.17 283.382 173.401C283.084 173.628 282.857 173.943 282.7 174.347C282.547 174.747 282.47 175.209 282.47 175.732ZM296.688 173.891L295.994 174.087C295.925 173.891 295.829 173.713 295.704 173.554C295.579 173.395 295.415 173.268 295.214 173.175C295.015 173.081 294.768 173.034 294.472 173.034C294.029 173.034 293.665 173.139 293.381 173.349C293.097 173.56 292.955 173.831 292.955 174.163C292.955 174.445 293.052 174.673 293.245 174.849C293.441 175.023 293.742 175.161 294.148 175.263L295.137 175.506C295.685 175.639 296.096 175.851 296.369 176.141C296.644 176.43 296.782 176.794 296.782 177.232C296.782 177.601 296.68 177.929 296.475 178.216C296.271 178.503 295.985 178.729 295.619 178.893C295.255 179.055 294.833 179.136 294.353 179.136C293.714 179.136 293.187 178.993 292.772 178.706C292.357 178.416 292.092 177.999 291.975 177.453L292.704 177.274C292.798 177.663 292.981 177.957 293.254 178.156C293.529 178.355 293.891 178.455 294.34 178.455C294.843 178.455 295.245 178.342 295.546 178.118C295.847 177.891 295.998 177.607 295.998 177.266C295.998 177.001 295.91 176.78 295.734 176.601C295.558 176.419 295.29 176.286 294.933 176.2L293.863 175.945C293.295 175.808 292.874 175.592 292.602 175.297C292.329 175.001 292.192 174.635 292.192 174.197C292.192 173.837 292.29 173.52 292.487 173.247C292.683 172.972 292.952 172.756 293.296 172.599C293.64 172.443 294.032 172.365 294.472 172.365C295.072 172.365 295.55 172.501 295.908 172.774C296.269 173.044 296.529 173.416 296.688 173.891ZM298.443 181.455V172.455H299.18V173.703H299.27C299.36 173.507 299.485 173.307 299.645 173.102C299.804 172.895 300.014 172.72 300.275 172.578C300.539 172.436 300.872 172.365 301.272 172.365C301.812 172.365 302.284 172.507 302.687 172.791C303.093 173.072 303.409 173.467 303.633 173.976C303.86 174.482 303.974 175.071 303.974 175.744C303.974 176.42 303.86 177.013 303.633 177.521C303.409 178.03 303.093 178.426 302.687 178.71C302.284 178.994 301.815 179.136 301.281 179.136C300.886 179.136 300.555 179.065 300.288 178.923C300.024 178.781 299.809 178.607 299.645 178.399C299.483 178.189 299.358 177.984 299.27 177.786H299.201V181.455H298.443ZM299.193 175.732C299.193 176.26 299.271 176.729 299.427 177.138C299.586 177.544 299.814 177.864 300.109 178.097C300.407 178.327 300.768 178.442 301.191 178.442C301.626 178.442 301.993 178.322 302.291 178.084C302.592 177.842 302.821 177.517 302.977 177.108C303.136 176.699 303.216 176.24 303.216 175.732C303.216 175.229 303.137 174.776 302.981 174.372C302.828 173.969 302.6 173.649 302.299 173.413C301.998 173.175 301.629 173.055 301.191 173.055C300.765 173.055 300.403 173.17 300.105 173.401C299.806 173.628 299.579 173.943 299.423 174.347C299.27 174.747 299.193 175.209 299.193 175.732ZM305.647 179V172.455H306.409V179H305.647ZM306.034 171.33C305.878 171.33 305.745 171.277 305.634 171.172C305.523 171.064 305.468 170.935 305.468 170.784C305.468 170.634 305.523 170.506 305.634 170.401C305.745 170.293 305.878 170.239 306.034 170.239C306.191 170.239 306.324 170.293 306.435 170.401C306.546 170.506 306.601 170.634 306.601 170.784C306.601 170.935 306.546 171.064 306.435 171.172C306.324 171.277 306.191 171.33 306.034 171.33ZM309.106 176.528L309.097 175.536H309.268L312.336 172.455H313.295L310.265 175.489L310.197 175.501L309.106 176.528ZM308.415 179V170.273H309.174V179H308.415ZM312.494 179L309.835 175.638L310.38 175.114L313.465 179H312.494ZM317.097 179.136C316.486 179.136 315.958 178.994 315.512 178.71C315.066 178.423 314.721 178.027 314.476 177.521C314.235 177.013 314.114 176.428 314.114 175.766C314.114 175.107 314.235 174.521 314.476 174.01C314.721 173.496 315.057 173.094 315.486 172.804C315.918 172.511 316.417 172.365 316.982 172.365C317.337 172.365 317.679 172.43 318.009 172.561C318.338 172.689 318.634 172.886 318.895 173.153C319.159 173.418 319.368 173.751 319.522 174.155C319.675 174.555 319.752 175.03 319.752 175.578V175.953H314.638V175.284H318.976C318.976 174.864 318.891 174.486 318.721 174.151C318.553 173.812 318.319 173.545 318.017 173.349C317.719 173.153 317.374 173.055 316.982 173.055C316.567 173.055 316.202 173.166 315.887 173.388C315.571 173.609 315.324 173.902 315.145 174.266C314.969 174.629 314.88 175.027 314.877 175.459V175.859C314.877 176.379 314.966 176.834 315.145 177.223C315.327 177.609 315.584 177.909 315.917 178.122C316.249 178.335 316.642 178.442 317.097 178.442C317.407 178.442 317.678 178.393 317.911 178.297C318.147 178.2 318.344 178.071 318.503 177.909C318.665 177.744 318.787 177.564 318.87 177.368L319.59 177.602C319.49 177.878 319.327 178.132 319.1 178.365C318.875 178.598 318.594 178.786 318.256 178.928C317.921 179.067 317.534 179.136 317.097 179.136ZM325.821 173.891L325.126 174.087C325.058 173.891 324.962 173.713 324.837 173.554C324.712 173.395 324.548 173.268 324.347 173.175C324.148 173.081 323.901 173.034 323.605 173.034C323.162 173.034 322.798 173.139 322.514 173.349C322.23 173.56 322.088 173.831 322.088 174.163C322.088 174.445 322.185 174.673 322.378 174.849C322.574 175.023 322.875 175.161 323.281 175.263L324.27 175.506C324.818 175.639 325.229 175.851 325.501 176.141C325.777 176.43 325.915 176.794 325.915 177.232C325.915 177.601 325.813 177.929 325.608 178.216C325.403 178.503 325.118 178.729 324.751 178.893C324.388 179.055 323.966 179.136 323.486 179.136C322.847 179.136 322.32 178.993 321.905 178.706C321.49 178.416 321.224 177.999 321.108 177.453L321.837 177.274C321.93 177.663 322.114 177.957 322.386 178.156C322.662 178.355 323.024 178.455 323.473 178.455C323.976 178.455 324.378 178.342 324.679 178.118C324.98 177.891 325.131 177.607 325.131 177.266C325.131 177.001 325.043 176.78 324.866 176.601C324.69 176.419 324.423 176.286 324.065 176.2L322.996 175.945C322.428 175.808 322.007 175.592 321.734 175.297C321.462 175.001 321.325 174.635 321.325 174.197C321.325 173.837 321.423 173.52 321.619 173.247C321.815 172.972 322.085 172.756 322.429 172.599C322.773 172.443 323.165 172.365 323.605 172.365C324.205 172.365 324.683 172.501 325.041 172.774C325.402 173.044 325.662 173.416 325.821 173.891ZM330.951 179V172.455H331.688V173.46H331.743C331.874 173.131 332.101 172.865 332.425 172.663C332.752 172.459 333.121 172.357 333.533 172.357C333.596 172.357 333.665 172.358 333.742 172.361C333.819 172.364 333.882 172.366 333.934 172.369V173.141C333.9 173.135 333.84 173.126 333.755 173.115C333.669 173.104 333.577 173.098 333.478 173.098C333.137 173.098 332.833 173.17 332.566 173.315C332.301 173.457 332.093 173.655 331.939 173.908C331.786 174.161 331.709 174.449 331.709 174.773V179H330.951ZM337.675 179.136C337.064 179.136 336.536 178.994 336.09 178.71C335.644 178.423 335.299 178.027 335.054 177.521C334.813 177.013 334.692 176.428 334.692 175.766C334.692 175.107 334.813 174.521 335.054 174.01C335.299 173.496 335.635 173.094 336.064 172.804C336.496 172.511 336.995 172.365 337.56 172.365C337.915 172.365 338.257 172.43 338.587 172.561C338.917 172.689 339.212 172.886 339.473 173.153C339.738 173.418 339.946 173.751 340.1 174.155C340.253 174.555 340.33 175.03 340.33 175.578V175.953H335.216V175.284H339.554C339.554 174.864 339.469 174.486 339.299 174.151C339.131 173.812 338.897 173.545 338.596 173.349C338.297 173.153 337.952 173.055 337.56 173.055C337.145 173.055 336.78 173.166 336.465 173.388C336.15 173.609 335.902 173.902 335.723 174.266C335.547 174.629 335.458 175.027 335.455 175.459V175.859C335.455 176.379 335.544 176.834 335.723 177.223C335.905 177.609 336.162 177.909 336.495 178.122C336.827 178.335 337.221 178.442 337.675 178.442C337.985 178.442 338.256 178.393 338.489 178.297C338.725 178.2 338.922 178.071 339.081 177.909C339.243 177.744 339.365 177.564 339.448 177.368L340.168 177.602C340.069 177.878 339.905 178.132 339.678 178.365C339.453 178.598 339.172 178.786 338.834 178.928C338.499 179.067 338.113 179.136 337.675 179.136ZM346.399 173.891L345.705 174.087C345.636 173.891 345.54 173.713 345.415 173.554C345.29 173.395 345.126 173.268 344.925 173.175C344.726 173.081 344.479 173.034 344.183 173.034C343.74 173.034 343.376 173.139 343.092 173.349C342.808 173.56 342.666 173.831 342.666 174.163C342.666 174.445 342.763 174.673 342.956 174.849C343.152 175.023 343.453 175.161 343.859 175.263L344.848 175.506C345.396 175.639 345.807 175.851 346.08 176.141C346.355 176.43 346.493 176.794 346.493 177.232C346.493 177.601 346.391 177.929 346.186 178.216C345.982 178.503 345.696 178.729 345.33 178.893C344.966 179.055 344.544 179.136 344.064 179.136C343.425 179.136 342.898 178.993 342.483 178.706C342.068 178.416 341.803 177.999 341.686 177.453L342.415 177.274C342.509 177.663 342.692 177.957 342.964 178.156C343.24 178.355 343.602 178.455 344.051 178.455C344.554 178.455 344.956 178.342 345.257 178.118C345.558 177.891 345.709 177.607 345.709 177.266C345.709 177.001 345.621 176.78 345.445 176.601C345.268 176.419 345.001 176.286 344.643 176.2L343.574 175.945C343.006 175.808 342.585 175.592 342.312 175.297C342.04 175.001 341.903 174.635 341.903 174.197C341.903 173.837 342.001 173.52 342.197 173.247C342.393 172.972 342.663 172.756 343.007 172.599C343.351 172.443 343.743 172.365 344.183 172.365C344.783 172.365 345.261 172.501 345.619 172.774C345.98 173.044 346.24 173.416 346.399 173.891ZM352.313 176.499V172.455H353.071V179H352.313V177.913H352.253C352.1 178.249 351.857 178.528 351.525 178.753C351.192 178.974 350.786 179.085 350.306 179.085C349.888 179.085 349.517 178.994 349.194 178.812C348.87 178.628 348.615 178.358 348.431 178.003C348.246 177.648 348.154 177.212 348.154 176.695V172.455H348.912V176.648C348.912 177.159 349.063 177.571 349.364 177.884C349.665 178.193 350.051 178.348 350.523 178.348C350.819 178.348 351.103 178.277 351.375 178.135C351.648 177.993 351.873 177.786 352.049 177.513C352.225 177.237 352.313 176.899 352.313 176.499ZM355.838 170.273V179H355.08V170.273H355.838ZM360.423 172.455V173.115H357.3V172.455H360.423ZM358.276 170.886H359.038V177.291C359.038 177.564 359.085 177.778 359.179 177.935C359.273 178.088 359.395 178.197 359.545 178.263C359.696 178.325 359.857 178.357 360.027 178.357C360.126 178.357 360.212 178.351 360.283 178.339C360.354 178.325 360.416 178.311 360.47 178.297L360.632 178.983C360.558 179.011 360.467 179.037 360.359 179.06C360.251 179.085 360.118 179.098 359.959 179.098C359.68 179.098 359.412 179.037 359.153 178.915C358.898 178.793 358.688 178.611 358.523 178.369C358.358 178.128 358.276 177.828 358.276 177.47V170.886ZM362.154 179V172.455H362.917V179H362.154ZM362.542 171.33C362.386 171.33 362.252 171.277 362.142 171.172C362.031 171.064 361.975 170.935 361.975 170.784C361.975 170.634 362.031 170.506 362.142 170.401C362.252 170.293 362.386 170.239 362.542 170.239C362.699 170.239 362.832 170.293 362.943 170.401C363.054 170.506 363.109 170.634 363.109 170.784C363.109 170.935 363.054 171.064 362.943 171.172C362.832 171.277 362.699 171.33 362.542 171.33ZM365.682 174.909V179H364.923V172.455H365.661V173.482H365.729C365.882 173.146 366.121 172.878 366.445 172.676C366.771 172.472 367.175 172.369 367.655 172.369C368.095 172.369 368.482 172.462 368.814 172.646C369.149 172.828 369.409 173.097 369.594 173.452C369.781 173.807 369.875 174.243 369.875 174.76V179H369.116V174.807C369.116 174.27 368.966 173.845 368.665 173.533C368.366 173.22 367.966 173.064 367.463 173.064C367.119 173.064 366.814 173.138 366.547 173.286C366.28 173.433 366.068 173.646 365.912 173.925C365.759 174.2 365.682 174.528 365.682 174.909ZM374.37 181.591C373.924 181.591 373.533 181.533 373.198 181.416C372.863 181.303 372.58 181.146 372.35 180.947C372.12 180.749 371.941 180.526 371.813 180.278L372.435 179.869C372.529 180.034 372.654 180.196 372.81 180.355C372.969 180.514 373.175 180.646 373.428 180.751C373.684 180.857 373.998 180.909 374.37 180.909C374.949 180.909 375.417 180.764 375.772 180.474C376.13 180.185 376.309 179.734 376.309 179.124V177.649H376.24C376.152 177.848 376.026 178.047 375.861 178.246C375.696 178.442 375.48 178.605 375.213 178.736C374.949 178.866 374.621 178.932 374.229 178.932C373.706 178.932 373.242 178.803 372.836 178.544C372.432 178.286 372.114 177.916 371.881 177.436C371.651 176.953 371.536 176.378 371.536 175.71C371.536 175.048 371.648 174.466 371.873 173.963C372.1 173.46 372.417 173.068 372.823 172.787C373.229 172.506 373.702 172.365 374.242 172.365C374.642 172.365 374.975 172.436 375.239 172.578C375.503 172.717 375.715 172.891 375.874 173.098C376.036 173.305 376.162 173.507 376.253 173.703H376.33V172.455H377.071V179.17C377.071 179.724 376.953 180.18 376.718 180.538C376.482 180.896 376.161 181.161 375.755 181.331C375.348 181.504 374.887 181.591 374.37 181.591ZM374.319 178.237C374.739 178.237 375.098 178.136 375.397 177.935C375.695 177.73 375.924 177.437 376.083 177.057C376.242 176.676 376.321 176.223 376.321 175.697C376.321 175.186 376.243 174.733 376.087 174.338C375.931 173.94 375.703 173.628 375.405 173.401C375.11 173.17 374.748 173.055 374.319 173.055C373.881 173.055 373.512 173.173 373.211 173.409C372.909 173.645 372.682 173.963 372.529 174.364C372.375 174.761 372.299 175.206 372.299 175.697C372.299 176.197 372.377 176.639 372.533 177.023C372.689 177.403 372.918 177.702 373.219 177.918C373.52 178.131 373.887 178.237 374.319 178.237ZM382.463 179V172.455H383.226V179H382.463ZM382.851 171.33C382.695 171.33 382.561 171.277 382.45 171.172C382.339 171.064 382.284 170.935 382.284 170.784C382.284 170.634 382.339 170.506 382.45 170.401C382.561 170.293 382.695 170.239 382.851 170.239C383.007 170.239 383.141 170.293 383.251 170.401C383.362 170.506 383.418 170.634 383.418 170.784C383.418 170.935 383.362 171.064 383.251 171.172C383.141 171.277 383.007 171.33 382.851 171.33ZM385.99 174.909V179H385.232V172.455H385.969V173.482H386.037C386.191 173.146 386.429 172.878 386.753 172.676C387.08 172.472 387.483 172.369 387.963 172.369C388.404 172.369 388.79 172.462 389.123 172.646C389.458 172.828 389.718 173.097 389.902 173.452C390.09 173.807 390.184 174.243 390.184 174.76V179H389.425V174.807C389.425 174.27 389.275 173.845 388.973 173.533C388.675 173.22 388.275 173.064 387.772 173.064C387.428 173.064 387.123 173.138 386.855 173.286C386.588 173.433 386.377 173.646 386.221 173.925C386.067 174.2 385.99 174.528 385.99 174.909ZM398.1 179.136C397.535 179.136 397.035 178.993 396.6 178.706C396.168 178.419 395.83 178.023 395.586 177.517C395.342 177.009 395.219 176.422 395.219 175.757C395.219 175.087 395.342 174.497 395.586 173.989C395.83 173.477 396.168 173.08 396.6 172.795C397.035 172.509 397.535 172.365 398.1 172.365C398.665 172.365 399.164 172.509 399.596 172.795C400.028 173.082 400.366 173.48 400.61 173.989C400.857 174.497 400.981 175.087 400.981 175.757C400.981 176.422 400.859 177.009 400.614 177.517C400.37 178.023 400.031 178.419 399.596 178.706C399.164 178.993 398.665 179.136 398.1 179.136ZM398.1 178.442C398.555 178.442 398.94 178.32 399.255 178.075C399.57 177.831 399.809 177.506 399.971 177.099C400.136 176.693 400.218 176.246 400.218 175.757C400.218 175.268 400.136 174.82 399.971 174.411C399.809 174.001 399.57 173.673 399.255 173.426C398.94 173.179 398.555 173.055 398.1 173.055C397.648 173.055 397.263 173.179 396.945 173.426C396.63 173.673 396.39 174.001 396.225 174.411C396.063 174.82 395.982 175.268 395.982 175.757C395.982 176.246 396.063 176.693 396.225 177.099C396.39 177.506 396.63 177.831 396.945 178.075C397.261 178.32 397.646 178.442 398.1 178.442ZM407.478 172.455L405.088 179H404.278L401.887 172.455H402.71L404.653 177.999H404.713L406.656 172.455H407.478ZM411.374 179.136C410.763 179.136 410.235 178.994 409.789 178.71C409.343 178.423 408.998 178.027 408.754 177.521C408.512 177.013 408.391 176.428 408.391 175.766C408.391 175.107 408.512 174.521 408.754 174.01C408.998 173.496 409.335 173.094 409.763 172.804C410.195 172.511 410.694 172.365 411.259 172.365C411.614 172.365 411.957 172.43 412.286 172.561C412.616 172.689 412.911 172.886 413.173 173.153C413.437 173.418 413.646 173.751 413.799 174.155C413.952 174.555 414.029 175.03 414.029 175.578V175.953H408.915V175.284H413.254C413.254 174.864 413.168 174.486 412.998 174.151C412.83 173.812 412.596 173.545 412.295 173.349C411.996 173.153 411.651 173.055 411.259 173.055C410.844 173.055 410.479 173.166 410.164 173.388C409.849 173.609 409.602 173.902 409.423 174.266C409.246 174.629 409.157 175.027 409.154 175.459V175.859C409.154 176.379 409.244 176.834 409.423 177.223C409.604 177.609 409.862 177.909 410.194 178.122C410.526 178.335 410.92 178.442 411.374 178.442C411.684 178.442 411.955 178.393 412.188 178.297C412.424 178.2 412.621 178.071 412.781 177.909C412.942 177.744 413.065 177.564 413.147 177.368L413.867 177.602C413.768 177.878 413.604 178.132 413.377 178.365C413.153 178.598 412.871 178.786 412.533 178.928C412.198 179.067 411.812 179.136 411.374 179.136ZM415.701 179V172.455H416.438V173.46H416.493C416.624 173.131 416.851 172.865 417.175 172.663C417.502 172.459 417.871 172.357 418.283 172.357C418.346 172.357 418.415 172.358 418.492 172.361C418.569 172.364 418.632 172.366 418.684 172.369V173.141C418.65 173.135 418.59 173.126 418.505 173.115C418.419 173.104 418.327 173.098 418.228 173.098C417.887 173.098 417.583 173.17 417.316 173.315C417.051 173.457 416.843 173.655 416.689 173.908C416.536 174.161 416.459 174.449 416.459 174.773V179H415.701ZM420.737 174.909V179H419.978V170.273H420.737V173.482H420.805C420.958 173.143 421.195 172.874 421.516 172.672C421.84 172.47 422.249 172.369 422.744 172.369C423.187 172.369 423.576 172.46 423.911 172.642C424.246 172.824 424.508 173.092 424.695 173.447C424.883 173.803 424.977 174.24 424.977 174.76V179H424.214V174.807C424.214 174.267 424.063 173.842 423.762 173.533C423.464 173.22 423.06 173.064 422.552 173.064C422.202 173.064 421.891 173.138 421.619 173.286C421.346 173.433 421.13 173.646 420.971 173.925C420.815 174.2 420.737 174.528 420.737 174.909ZM429.62 179.136C429.01 179.136 428.481 178.994 428.035 178.71C427.589 178.423 427.244 178.027 427 177.521C426.758 177.013 426.637 176.428 426.637 175.766C426.637 175.107 426.758 174.521 427 174.01C427.244 173.496 427.581 173.094 428.01 172.804C428.441 172.511 428.94 172.365 429.505 172.365C429.86 172.365 430.203 172.43 430.532 172.561C430.862 172.689 431.157 172.886 431.419 173.153C431.683 173.418 431.892 173.751 432.045 174.155C432.199 174.555 432.275 175.03 432.275 175.578V175.953H427.162V175.284H431.5C431.5 174.864 431.414 174.486 431.244 174.151C431.076 173.812 430.842 173.545 430.541 173.349C430.243 173.153 429.897 173.055 429.505 173.055C429.091 173.055 428.725 173.166 428.41 173.388C428.095 173.609 427.848 173.902 427.669 174.266C427.493 174.629 427.403 175.027 427.4 175.459V175.859C427.4 176.379 427.49 176.834 427.669 177.223C427.85 177.609 428.108 177.909 428.44 178.122C428.772 178.335 429.166 178.442 429.62 178.442C429.93 178.442 430.201 178.393 430.434 178.297C430.67 178.2 430.868 178.071 431.027 177.909C431.189 177.744 431.311 177.564 431.393 177.368L432.113 177.602C432.014 177.878 431.85 178.132 431.623 178.365C431.399 178.598 431.118 178.786 430.779 178.928C430.444 179.067 430.058 179.136 429.62 179.136ZM435.775 179.149C435.38 179.149 435.019 179.072 434.692 178.919C434.366 178.763 434.106 178.538 433.913 178.246C433.719 177.95 433.623 177.592 433.623 177.172C433.623 176.848 433.684 176.575 433.806 176.354C433.928 176.132 434.102 175.95 434.326 175.808C434.55 175.666 434.816 175.554 435.123 175.472C435.43 175.389 435.768 175.325 436.137 175.28C436.504 175.234 436.813 175.195 437.066 175.161C437.322 175.126 437.516 175.072 437.65 174.999C437.783 174.925 437.85 174.805 437.85 174.641V174.487C437.85 174.041 437.717 173.69 437.45 173.435C437.185 173.176 436.805 173.047 436.308 173.047C435.836 173.047 435.451 173.151 435.153 173.358C434.857 173.565 434.65 173.81 434.531 174.091L433.81 173.831C433.958 173.473 434.163 173.187 434.424 172.974C434.685 172.759 434.978 172.604 435.302 172.51C435.626 172.413 435.954 172.365 436.286 172.365C436.536 172.365 436.796 172.398 437.066 172.463C437.339 172.528 437.592 172.642 437.825 172.804C438.058 172.963 438.246 173.186 438.391 173.473C438.536 173.757 438.609 174.118 438.609 174.555V179H437.85V177.964H437.803C437.712 178.158 437.577 178.345 437.398 178.527C437.219 178.709 436.995 178.858 436.725 178.974C436.455 179.091 436.138 179.149 435.775 179.149ZM435.877 178.455C436.281 178.455 436.63 178.365 436.925 178.186C437.221 178.007 437.448 177.77 437.607 177.474C437.769 177.176 437.85 176.848 437.85 176.49V175.544C437.793 175.598 437.698 175.646 437.565 175.689C437.434 175.732 437.282 175.77 437.109 175.804C436.938 175.835 436.768 175.862 436.597 175.885C436.427 175.908 436.273 175.928 436.137 175.945C435.768 175.99 435.452 176.061 435.191 176.158C434.93 176.254 434.729 176.388 434.59 176.558C434.451 176.726 434.381 176.942 434.381 177.206C434.381 177.604 434.523 177.912 434.808 178.131C435.092 178.347 435.448 178.455 435.877 178.455ZM443.205 172.455V173.115H440.081V172.455H443.205ZM441.057 170.886H441.82V177.291C441.82 177.564 441.866 177.778 441.96 177.935C442.054 178.088 442.176 178.197 442.327 178.263C442.477 178.325 442.638 178.357 442.808 178.357C442.908 178.357 442.993 178.351 443.064 178.339C443.135 178.325 443.197 178.311 443.251 178.297L443.413 178.983C443.339 179.011 443.249 179.037 443.141 179.06C443.033 179.085 442.899 179.098 442.74 179.098C442.462 179.098 442.193 179.037 441.935 178.915C441.679 178.793 441.469 178.611 441.304 178.369C441.139 178.128 441.057 177.828 441.057 177.47V170.886ZM450.13 179.149C449.735 179.149 449.375 179.072 449.048 178.919C448.721 178.763 448.461 178.538 448.268 178.246C448.075 177.95 447.978 177.592 447.978 177.172C447.978 176.848 448.039 176.575 448.162 176.354C448.284 176.132 448.457 175.95 448.681 175.808C448.906 175.666 449.172 175.554 449.478 175.472C449.785 175.389 450.123 175.325 450.493 175.28C450.859 175.234 451.169 175.195 451.422 175.161C451.677 175.126 451.872 175.072 452.005 174.999C452.139 174.925 452.206 174.805 452.206 174.641V174.487C452.206 174.041 452.072 173.69 451.805 173.435C451.541 173.176 451.16 173.047 450.663 173.047C450.191 173.047 449.806 173.151 449.508 173.358C449.213 173.565 449.005 173.81 448.886 174.091L448.166 173.831C448.314 173.473 448.518 173.187 448.779 172.974C449.041 172.759 449.333 172.604 449.657 172.51C449.981 172.413 450.309 172.365 450.642 172.365C450.892 172.365 451.152 172.398 451.422 172.463C451.694 172.528 451.947 172.642 452.18 172.804C452.413 172.963 452.602 173.186 452.747 173.473C452.892 173.757 452.964 174.118 452.964 174.555V179H452.206V177.964H452.159C452.068 178.158 451.933 178.345 451.754 178.527C451.575 178.709 451.35 178.858 451.081 178.974C450.811 179.091 450.494 179.149 450.13 179.149ZM450.233 178.455C450.636 178.455 450.985 178.365 451.281 178.186C451.576 178.007 451.804 177.77 451.963 177.474C452.125 177.176 452.206 176.848 452.206 176.49V175.544C452.149 175.598 452.054 175.646 451.92 175.689C451.789 175.732 451.637 175.77 451.464 175.804C451.294 175.835 451.123 175.862 450.953 175.885C450.782 175.908 450.629 175.928 450.493 175.945C450.123 175.99 449.808 176.061 449.547 176.158C449.285 176.254 449.085 176.388 448.946 176.558C448.806 176.726 448.737 176.942 448.737 177.206C448.737 177.604 448.879 177.912 449.163 178.131C449.447 178.347 449.804 178.455 450.233 178.455ZM455.74 174.909V179H454.982V172.455H455.719V173.482H455.787C455.941 173.146 456.179 172.878 456.503 172.676C456.83 172.472 457.233 172.369 457.713 172.369C458.154 172.369 458.54 172.462 458.873 172.646C459.208 172.828 459.468 173.097 459.652 173.452C459.84 173.807 459.934 174.243 459.934 174.76V179H459.175V174.807C459.175 174.27 459.025 173.845 458.723 173.533C458.425 173.22 458.025 173.064 457.522 173.064C457.178 173.064 456.873 173.138 456.605 173.286C456.338 173.433 456.127 173.646 455.971 173.925C455.817 174.2 455.74 174.528 455.74 174.909ZM464.288 179.136C463.751 179.136 463.281 178.994 462.877 178.71C462.474 178.426 462.158 178.03 461.931 177.521C461.707 177.013 461.594 176.42 461.594 175.744C461.594 175.071 461.707 174.482 461.931 173.976C462.158 173.467 462.475 173.072 462.881 172.791C463.288 172.507 463.761 172.365 464.3 172.365C464.698 172.365 465.029 172.436 465.293 172.578C465.558 172.717 465.769 172.891 465.928 173.098C466.087 173.305 466.211 173.507 466.299 173.703H466.367V170.273H467.13V179H466.388V177.786H466.299C466.211 177.984 466.086 178.189 465.924 178.399C465.762 178.607 465.548 178.781 465.281 178.923C465.016 179.065 464.685 179.136 464.288 179.136ZM464.377 178.442C464.8 178.442 465.161 178.327 465.46 178.097C465.758 177.864 465.985 177.544 466.141 177.138C466.3 176.729 466.38 176.26 466.38 175.732C466.38 175.209 466.302 174.747 466.146 174.347C465.989 173.943 465.762 173.628 465.464 173.401C465.165 173.17 464.803 173.055 464.377 173.055C463.94 173.055 463.57 173.175 463.269 173.413C462.971 173.649 462.744 173.969 462.587 174.372C462.434 174.776 462.357 175.229 462.357 175.732C462.357 176.24 462.435 176.699 462.592 177.108C462.748 177.517 462.975 177.842 463.273 178.084C463.575 178.322 463.942 178.442 464.377 178.442ZM218.648 198.136C218.037 198.136 217.509 197.994 217.062 197.71C216.616 197.423 216.271 197.027 216.027 196.521C215.786 196.013 215.665 195.428 215.665 194.766C215.665 194.107 215.786 193.521 216.027 193.01C216.271 192.496 216.608 192.094 217.037 191.804C217.469 191.511 217.967 191.365 218.533 191.365C218.888 191.365 219.23 191.43 219.56 191.561C219.889 191.689 220.185 191.886 220.446 192.153C220.71 192.418 220.919 192.751 221.072 193.155C221.226 193.555 221.303 194.03 221.303 194.578V194.953H216.189V194.284H220.527C220.527 193.864 220.442 193.486 220.271 193.151C220.104 192.812 219.869 192.545 219.568 192.349C219.27 192.153 218.925 192.055 218.533 192.055C218.118 192.055 217.753 192.166 217.438 192.388C217.122 192.609 216.875 192.902 216.696 193.266C216.52 193.629 216.43 194.027 216.428 194.459V194.859C216.428 195.379 216.517 195.834 216.696 196.223C216.878 196.609 217.135 196.909 217.467 197.122C217.8 197.335 218.193 197.442 218.648 197.442C218.957 197.442 219.229 197.393 219.462 197.297C219.697 197.2 219.895 197.071 220.054 196.909C220.216 196.744 220.338 196.564 220.42 196.368L221.141 196.602C221.041 196.878 220.878 197.132 220.651 197.365C220.426 197.598 220.145 197.786 219.807 197.928C219.472 198.067 219.085 198.136 218.648 198.136ZM222.974 198V191.455H223.711V192.46H223.779C223.91 192.122 224.127 191.857 224.431 191.663C224.738 191.467 225.106 191.369 225.535 191.369C225.987 191.369 226.358 191.476 226.647 191.689C226.94 191.899 227.159 192.189 227.304 192.558H227.359C227.507 192.195 227.747 191.906 228.079 191.693C228.414 191.477 228.821 191.369 229.298 191.369C229.906 191.369 230.386 191.561 230.738 191.945C231.091 192.325 231.267 192.882 231.267 193.615V198H230.508V193.615C230.508 193.098 230.376 192.71 230.112 192.452C229.848 192.193 229.5 192.064 229.068 192.064C228.568 192.064 228.183 192.217 227.913 192.524C227.643 192.831 227.508 193.22 227.508 193.692V198H226.733V193.547C226.733 193.104 226.609 192.746 226.362 192.473C226.115 192.2 225.767 192.064 225.318 192.064C225.017 192.064 224.745 192.138 224.504 192.286C224.265 192.433 224.076 192.639 223.937 192.903C223.801 193.165 223.733 193.466 223.733 193.807V198H222.974ZM235.921 198.136C235.31 198.136 234.782 197.994 234.336 197.71C233.89 197.423 233.545 197.027 233.3 196.521C233.059 196.013 232.938 195.428 232.938 194.766C232.938 194.107 233.059 193.521 233.3 193.01C233.545 192.496 233.881 192.094 234.31 191.804C234.742 191.511 235.241 191.365 235.806 191.365C236.161 191.365 236.504 191.43 236.833 191.561C237.163 191.689 237.458 191.886 237.719 192.153C237.984 192.418 238.192 192.751 238.346 193.155C238.499 193.555 238.576 194.03 238.576 194.578V194.953H233.462V194.284H237.8C237.8 193.864 237.715 193.486 237.545 193.151C237.377 192.812 237.143 192.545 236.842 192.349C236.543 192.153 236.198 192.055 235.806 192.055C235.391 192.055 235.026 192.166 234.711 192.388C234.396 192.609 234.148 192.902 233.969 193.266C233.793 193.629 233.704 194.027 233.701 194.459V194.859C233.701 195.379 233.79 195.834 233.969 196.223C234.151 196.609 234.408 196.909 234.741 197.122C235.073 197.335 235.467 197.442 235.921 197.442C236.231 197.442 236.502 197.393 236.735 197.297C236.971 197.2 237.168 197.071 237.327 196.909C237.489 196.744 237.612 196.564 237.694 196.368L238.414 196.602C238.315 196.878 238.151 197.132 237.924 197.365C237.7 197.598 237.418 197.786 237.08 197.928C236.745 198.067 236.359 198.136 235.921 198.136ZM240.248 198V191.455H240.985V192.46H241.04C241.171 192.131 241.398 191.865 241.722 191.663C242.049 191.459 242.418 191.357 242.83 191.357C242.892 191.357 242.962 191.358 243.039 191.361C243.115 191.364 243.179 191.366 243.23 191.369V192.141C243.196 192.135 243.137 192.126 243.051 192.115C242.966 192.104 242.874 192.098 242.775 192.098C242.434 192.098 242.13 192.17 241.863 192.315C241.598 192.457 241.39 192.655 241.236 192.908C241.083 193.161 241.006 193.449 241.006 193.773V198H240.248ZM246.823 200.591C246.377 200.591 245.986 200.533 245.651 200.416C245.316 200.303 245.033 200.146 244.803 199.947C244.573 199.749 244.394 199.526 244.266 199.278L244.888 198.869C244.982 199.034 245.107 199.196 245.263 199.355C245.422 199.514 245.628 199.646 245.881 199.751C246.137 199.857 246.451 199.909 246.823 199.909C247.402 199.909 247.87 199.764 248.225 199.474C248.583 199.185 248.762 198.734 248.762 198.124V196.649H248.694C248.605 196.848 248.479 197.047 248.314 197.246C248.15 197.442 247.934 197.605 247.667 197.736C247.402 197.866 247.074 197.932 246.682 197.932C246.159 197.932 245.695 197.803 245.289 197.544C244.885 197.286 244.567 196.916 244.334 196.436C244.104 195.953 243.989 195.378 243.989 194.71C243.989 194.048 244.101 193.466 244.326 192.963C244.553 192.46 244.87 192.068 245.276 191.787C245.682 191.506 246.155 191.365 246.695 191.365C247.096 191.365 247.428 191.436 247.692 191.578C247.956 191.717 248.168 191.891 248.327 192.098C248.489 192.305 248.615 192.507 248.706 192.703H248.783V191.455H249.525V198.17C249.525 198.724 249.407 199.18 249.171 199.538C248.935 199.896 248.614 200.161 248.208 200.331C247.801 200.504 247.34 200.591 246.823 200.591ZM246.772 197.237C247.192 197.237 247.551 197.136 247.85 196.935C248.148 196.73 248.377 196.437 248.536 196.057C248.695 195.676 248.775 195.223 248.775 194.697C248.775 194.186 248.696 193.733 248.54 193.338C248.384 192.94 248.157 192.628 247.858 192.401C247.563 192.17 247.201 192.055 246.772 192.055C246.334 192.055 245.965 192.173 245.664 192.409C245.363 192.645 245.135 192.963 244.982 193.364C244.828 193.761 244.752 194.206 244.752 194.697C244.752 195.197 244.83 195.639 244.986 196.023C245.142 196.403 245.371 196.702 245.672 196.918C245.973 197.131 246.34 197.237 246.772 197.237ZM254.179 198.136C253.568 198.136 253.04 197.994 252.594 197.71C252.148 197.423 251.803 197.027 251.558 196.521C251.317 196.013 251.196 195.428 251.196 194.766C251.196 194.107 251.317 193.521 251.558 193.01C251.803 192.496 252.139 192.094 252.568 191.804C253 191.511 253.499 191.365 254.064 191.365C254.419 191.365 254.761 191.43 255.091 191.561C255.42 191.689 255.716 191.886 255.977 192.153C256.241 192.418 256.45 192.751 256.604 193.155C256.757 193.555 256.834 194.03 256.834 194.578V194.953H251.72V194.284H256.058C256.058 193.864 255.973 193.486 255.803 193.151C255.635 192.812 255.401 192.545 255.099 192.349C254.801 192.153 254.456 192.055 254.064 192.055C253.649 192.055 253.284 192.166 252.969 192.388C252.653 192.609 252.406 192.902 252.227 193.266C252.051 193.629 251.962 194.027 251.959 194.459V194.859C251.959 195.379 252.048 195.834 252.227 196.223C252.409 196.609 252.666 196.909 252.999 197.122C253.331 197.335 253.724 197.442 254.179 197.442C254.489 197.442 254.76 197.393 254.993 197.297C255.229 197.2 255.426 197.071 255.585 196.909C255.747 196.744 255.869 196.564 255.952 196.368L256.672 196.602C256.572 196.878 256.409 197.132 256.182 197.365C255.957 197.598 255.676 197.786 255.338 197.928C255.003 198.067 254.616 198.136 254.179 198.136ZM259.264 193.909V198H258.505V191.455H259.243V192.482H259.311C259.464 192.146 259.703 191.878 260.027 191.676C260.353 191.472 260.757 191.369 261.237 191.369C261.677 191.369 262.064 191.462 262.396 191.646C262.731 191.828 262.991 192.097 263.176 192.452C263.363 192.807 263.457 193.243 263.457 193.76V198H262.699V193.807C262.699 193.27 262.548 192.845 262.247 192.533C261.949 192.22 261.548 192.064 261.045 192.064C260.701 192.064 260.396 192.138 260.129 192.286C259.862 192.433 259.65 192.646 259.494 192.925C259.341 193.2 259.264 193.528 259.264 193.909ZM268.011 198.136C267.426 198.136 266.916 197.99 266.482 197.697C266.05 197.405 265.714 197.004 265.476 196.496C265.237 195.987 265.118 195.408 265.118 194.757C265.118 194.101 265.239 193.517 265.48 193.006C265.724 192.494 266.063 192.094 266.494 191.804C266.926 191.511 267.428 191.365 267.999 191.365C268.436 191.365 268.832 191.45 269.188 191.621C269.543 191.788 269.835 192.026 270.065 192.332C270.298 192.636 270.445 192.991 270.504 193.398H269.737C269.658 193.028 269.466 192.713 269.162 192.452C268.861 192.187 268.477 192.055 268.011 192.055C267.594 192.055 267.224 192.169 266.903 192.396C266.582 192.621 266.331 192.935 266.149 193.338C265.97 193.739 265.881 194.203 265.881 194.732C265.881 195.263 265.969 195.733 266.145 196.142C266.321 196.548 266.568 196.866 266.886 197.097C267.207 197.327 267.582 197.442 268.011 197.442C268.301 197.442 268.565 197.388 268.804 197.28C269.045 197.169 269.247 197.013 269.409 196.811C269.574 196.609 269.685 196.369 269.741 196.091H270.509C270.452 196.486 270.311 196.838 270.087 197.148C269.865 197.455 269.577 197.696 269.222 197.872C268.869 198.048 268.466 198.136 268.011 198.136ZM272.663 200.455C272.512 200.455 272.371 200.44 272.241 200.412C272.11 200.384 272.006 200.352 271.93 200.318L272.134 199.649C272.393 199.729 272.623 199.757 272.825 199.734C273.026 199.714 273.205 199.624 273.362 199.462C273.518 199.303 273.657 199.058 273.779 198.729L274.018 198.064L271.61 191.455H272.433L274.376 196.999H274.435L276.379 191.455H277.201L274.431 199.036C274.315 199.351 274.171 199.614 274.001 199.824C273.83 200.037 273.633 200.195 273.408 200.297C273.187 200.402 272.938 200.455 272.663 200.455ZM286.458 192.891L285.763 193.087C285.695 192.891 285.598 192.713 285.473 192.554C285.348 192.395 285.185 192.268 284.983 192.175C284.784 192.081 284.537 192.034 284.242 192.034C283.799 192.034 283.435 192.139 283.151 192.349C282.867 192.56 282.725 192.831 282.725 193.163C282.725 193.445 282.821 193.673 283.015 193.849C283.211 194.023 283.512 194.161 283.918 194.263L284.907 194.506C285.455 194.639 285.865 194.851 286.138 195.141C286.414 195.43 286.551 195.794 286.551 196.232C286.551 196.601 286.449 196.929 286.245 197.216C286.04 197.503 285.755 197.729 285.388 197.893C285.025 198.055 284.603 198.136 284.123 198.136C283.483 198.136 282.956 197.993 282.542 197.706C282.127 197.416 281.861 196.999 281.745 196.453L282.473 196.274C282.567 196.663 282.75 196.957 283.023 197.156C283.299 197.355 283.661 197.455 284.11 197.455C284.613 197.455 285.015 197.342 285.316 197.118C285.617 196.891 285.767 196.607 285.767 196.266C285.767 196.001 285.679 195.78 285.503 195.601C285.327 195.419 285.06 195.286 284.702 195.2L283.632 194.945C283.064 194.808 282.644 194.592 282.371 194.297C282.098 194.001 281.962 193.635 281.962 193.197C281.962 192.837 282.06 192.52 282.256 192.247C282.452 191.972 282.722 191.756 283.066 191.599C283.409 191.443 283.801 191.365 284.242 191.365C284.841 191.365 285.32 191.501 285.678 191.774C286.039 192.044 286.299 192.416 286.458 192.891ZM288.971 193.909V198H288.212V189.273H288.971V192.482H289.039C289.192 192.143 289.43 191.874 289.751 191.672C290.075 191.47 290.484 191.369 290.978 191.369C291.421 191.369 291.81 191.46 292.146 191.642C292.481 191.824 292.742 192.092 292.93 192.447C293.117 192.803 293.211 193.24 293.211 193.76V198H292.448V193.807C292.448 193.267 292.298 192.842 291.996 192.533C291.698 192.22 291.295 192.064 290.786 192.064C290.437 192.064 290.126 192.138 289.853 192.286C289.58 192.433 289.364 192.646 289.205 192.925C289.049 193.2 288.971 193.528 288.971 193.909ZM299.368 195.499V191.455H300.126V198H299.368V196.913H299.308C299.154 197.249 298.912 197.528 298.579 197.753C298.247 197.974 297.841 198.085 297.36 198.085C296.943 198.085 296.572 197.994 296.248 197.812C295.924 197.628 295.67 197.358 295.485 197.003C295.301 196.648 295.208 196.212 295.208 195.695V191.455H295.967V195.648C295.967 196.159 296.118 196.571 296.419 196.884C296.72 197.193 297.106 197.348 297.578 197.348C297.873 197.348 298.157 197.277 298.43 197.135C298.703 196.993 298.927 196.786 299.103 196.513C299.279 196.237 299.368 195.899 299.368 195.499ZM304.712 191.455V192.115H301.589V191.455H304.712ZM302.565 189.886H303.327V196.291C303.327 196.564 303.374 196.778 303.468 196.935C303.562 197.088 303.684 197.197 303.835 197.263C303.985 197.325 304.146 197.357 304.316 197.357C304.415 197.357 304.501 197.351 304.572 197.339C304.643 197.325 304.705 197.311 304.759 197.297L304.921 197.983C304.847 198.011 304.756 198.037 304.648 198.06C304.54 198.085 304.407 198.098 304.248 198.098C303.969 198.098 303.701 198.037 303.442 197.915C303.187 197.793 302.977 197.611 302.812 197.369C302.647 197.128 302.565 196.828 302.565 196.47V189.886ZM308.721 198.136C308.184 198.136 307.714 197.994 307.311 197.71C306.907 197.426 306.592 197.03 306.365 196.521C306.14 196.013 306.028 195.42 306.028 194.744C306.028 194.071 306.14 193.482 306.365 192.976C306.592 192.467 306.909 192.072 307.315 191.791C307.721 191.507 308.194 191.365 308.734 191.365C309.132 191.365 309.463 191.436 309.727 191.578C309.991 191.717 310.203 191.891 310.362 192.098C310.521 192.305 310.645 192.507 310.733 192.703H310.801V189.273H311.564V198H310.822V196.786H310.733C310.645 196.984 310.52 197.189 310.358 197.399C310.196 197.607 309.981 197.781 309.714 197.923C309.45 198.065 309.119 198.136 308.721 198.136ZM308.811 197.442C309.234 197.442 309.595 197.327 309.893 197.097C310.191 196.864 310.419 196.544 310.575 196.138C310.734 195.729 310.814 195.26 310.814 194.732C310.814 194.209 310.735 193.747 310.579 193.347C310.423 192.943 310.196 192.628 309.897 192.401C309.599 192.17 309.237 192.055 308.811 192.055C308.373 192.055 308.004 192.175 307.703 192.413C307.404 192.649 307.177 192.969 307.021 193.372C306.868 193.776 306.791 194.229 306.791 194.732C306.791 195.24 306.869 195.699 307.025 196.108C307.181 196.517 307.409 196.842 307.707 197.084C308.008 197.322 308.376 197.442 308.811 197.442ZM316.268 198.136C315.703 198.136 315.203 197.993 314.768 197.706C314.336 197.419 313.998 197.023 313.754 196.517C313.51 196.009 313.387 195.422 313.387 194.757C313.387 194.087 313.51 193.497 313.754 192.989C313.998 192.477 314.336 192.08 314.768 191.795C315.203 191.509 315.703 191.365 316.268 191.365C316.833 191.365 317.332 191.509 317.764 191.795C318.196 192.082 318.534 192.48 318.778 192.989C319.025 193.497 319.149 194.087 319.149 194.757C319.149 195.422 319.027 196.009 318.782 196.517C318.538 197.023 318.199 197.419 317.764 197.706C317.332 197.993 316.833 198.136 316.268 198.136ZM316.268 197.442C316.723 197.442 317.108 197.32 317.423 197.075C317.738 196.831 317.977 196.506 318.139 196.099C318.304 195.693 318.386 195.246 318.386 194.757C318.386 194.268 318.304 193.82 318.139 193.411C317.977 193.001 317.738 192.673 317.423 192.426C317.108 192.179 316.723 192.055 316.268 192.055C315.816 192.055 315.431 192.179 315.113 192.426C314.798 192.673 314.558 193.001 314.393 193.411C314.231 193.82 314.15 194.268 314.15 194.757C314.15 195.246 314.231 195.693 314.393 196.099C314.558 196.506 314.798 196.831 315.113 197.075C315.429 197.32 315.814 197.442 316.268 197.442ZM322.044 198L320.067 191.455H320.868L322.419 196.854H322.475L324.022 191.455H324.827L326.361 196.841H326.421L327.972 191.455H328.773L326.796 198H326.012L324.461 192.635H324.38L322.828 198H322.044ZM331.006 193.909V198H330.248V191.455H330.985V192.482H331.053C331.206 192.146 331.445 191.878 331.769 191.676C332.096 191.472 332.499 191.369 332.979 191.369C333.419 191.369 333.806 191.462 334.138 191.646C334.473 191.828 334.733 192.097 334.918 192.452C335.105 192.807 335.199 193.243 335.199 193.76V198H334.441V193.807C334.441 193.27 334.29 192.845 333.989 192.533C333.691 192.22 333.29 192.064 332.787 192.064C332.444 192.064 332.138 192.138 331.871 192.286C331.604 192.433 331.392 192.646 331.236 192.925C331.083 193.2 331.006 193.528 331.006 193.909ZM337.802 198.064C337.634 198.064 337.489 198.004 337.367 197.885C337.248 197.763 337.188 197.618 337.188 197.45C337.188 197.28 337.248 197.135 337.367 197.016C337.489 196.896 337.634 196.837 337.802 196.837C337.972 196.837 338.117 196.896 338.237 197.016C338.356 197.135 338.415 197.28 338.415 197.45C338.415 197.561 338.387 197.663 338.33 197.757C338.276 197.851 338.202 197.926 338.109 197.983C338.018 198.037 337.915 198.064 337.802 198.064Z" fill="black"/>
</g>
<g filter="url(#filter1_d_755_18949)">
<rect x="542" y="391" width="320" height="67" rx="4" fill="white" shape-rendering="crispEdges"/>
<path d="M567.159 429V420.273H567.956V428.284H572.115V429H567.159ZM576.295 429.136C575.73 429.136 575.23 428.993 574.795 428.706C574.364 428.419 574.026 428.023 573.781 427.517C573.537 427.009 573.415 426.422 573.415 425.757C573.415 425.087 573.537 424.497 573.781 423.989C574.026 423.477 574.364 423.08 574.795 422.795C575.23 422.509 575.73 422.365 576.295 422.365C576.861 422.365 577.359 422.509 577.791 422.795C578.223 423.082 578.561 423.48 578.805 423.989C579.053 424.497 579.176 425.087 579.176 425.757C579.176 426.422 579.054 427.009 578.81 427.517C578.565 428.023 578.226 428.419 577.791 428.706C577.359 428.993 576.861 429.136 576.295 429.136ZM576.295 428.442C576.75 428.442 577.135 428.32 577.45 428.075C577.766 427.831 578.004 427.506 578.166 427.099C578.331 426.693 578.413 426.246 578.413 425.757C578.413 425.268 578.331 424.82 578.166 424.411C578.004 424.001 577.766 423.673 577.45 423.426C577.135 423.179 576.75 423.055 576.295 423.055C575.844 423.055 575.459 423.179 575.141 423.426C574.825 423.673 574.585 424.001 574.42 424.411C574.259 424.82 574.178 425.268 574.178 425.757C574.178 426.246 574.259 426.693 574.42 427.099C574.585 427.506 574.825 427.831 575.141 428.075C575.456 428.32 575.841 428.442 576.295 428.442ZM581.6 424.909V429H580.841V422.455H581.578V423.482H581.647C581.8 423.146 582.039 422.878 582.363 422.676C582.689 422.472 583.093 422.369 583.573 422.369C584.013 422.369 584.4 422.462 584.732 422.646C585.067 422.828 585.327 423.097 585.512 423.452C585.699 423.807 585.793 424.243 585.793 424.76V429H585.034V424.807C585.034 424.27 584.884 423.845 584.583 423.533C584.284 423.22 583.884 423.064 583.381 423.064C583.037 423.064 582.732 423.138 582.465 423.286C582.198 423.433 581.986 423.646 581.83 423.925C581.676 424.2 581.6 424.528 581.6 424.909ZM590.288 431.591C589.842 431.591 589.451 431.533 589.116 431.416C588.781 431.303 588.498 431.146 588.268 430.947C588.038 430.749 587.859 430.526 587.731 430.278L588.353 429.869C588.447 430.034 588.572 430.196 588.728 430.355C588.887 430.514 589.093 430.646 589.346 430.751C589.602 430.857 589.915 430.909 590.288 430.909C590.867 430.909 591.335 430.764 591.69 430.474C592.048 430.185 592.227 429.734 592.227 429.124V427.649H592.158C592.07 427.848 591.944 428.047 591.779 428.246C591.614 428.442 591.398 428.605 591.131 428.736C590.867 428.866 590.539 428.932 590.147 428.932C589.624 428.932 589.16 428.803 588.754 428.544C588.35 428.286 588.032 427.916 587.799 427.436C587.569 426.953 587.454 426.378 587.454 425.71C587.454 425.048 587.566 424.466 587.79 423.963C588.018 423.46 588.335 423.068 588.741 422.787C589.147 422.506 589.62 422.365 590.16 422.365C590.56 422.365 590.893 422.436 591.157 422.578C591.421 422.717 591.633 422.891 591.792 423.098C591.954 423.305 592.08 423.507 592.171 423.703H592.248V422.455H592.989V429.17C592.989 429.724 592.871 430.18 592.636 430.538C592.4 430.896 592.079 431.161 591.673 431.331C591.266 431.504 590.805 431.591 590.288 431.591ZM590.237 428.237C590.657 428.237 591.016 428.136 591.315 427.935C591.613 427.73 591.842 427.437 592.001 427.057C592.16 426.676 592.239 426.223 592.239 425.697C592.239 425.186 592.161 424.733 592.005 424.338C591.849 423.94 591.621 423.628 591.323 423.401C591.028 423.17 590.665 423.055 590.237 423.055C589.799 423.055 589.43 423.173 589.129 423.409C588.827 423.645 588.6 423.963 588.447 424.364C588.293 424.761 588.217 425.206 588.217 425.697C588.217 426.197 588.295 426.639 588.451 427.023C588.607 427.403 588.836 427.702 589.137 427.918C589.438 428.131 589.805 428.237 590.237 428.237ZM605.365 423H604.564C604.505 422.702 604.397 422.426 604.24 422.173C604.087 421.918 603.894 421.695 603.661 421.504C603.428 421.314 603.164 421.166 602.868 421.061C602.573 420.956 602.253 420.903 601.909 420.903C601.358 420.903 600.855 421.047 600.401 421.334C599.949 421.621 599.587 422.043 599.314 422.599C599.044 423.153 598.909 423.832 598.909 424.636C598.909 425.446 599.044 426.128 599.314 426.682C599.587 427.236 599.949 427.656 600.401 427.943C600.855 428.227 601.358 428.369 601.909 428.369C602.253 428.369 602.573 428.317 602.868 428.212C603.164 428.107 603.428 427.96 603.661 427.773C603.894 427.582 604.087 427.359 604.24 427.104C604.397 426.848 604.505 426.571 604.564 426.273H605.365C605.294 426.673 605.161 427.047 604.965 427.393C604.772 427.737 604.525 428.038 604.223 428.297C603.925 428.555 603.581 428.757 603.192 428.902C602.803 429.047 602.375 429.119 601.909 429.119C601.176 429.119 600.526 428.936 599.958 428.57C599.39 428.2 598.944 427.68 598.62 427.01C598.299 426.339 598.138 425.548 598.138 424.636C598.138 423.724 598.299 422.933 598.62 422.263C598.944 421.592 599.39 421.074 599.958 420.707C600.526 420.338 601.176 420.153 601.909 420.153C602.375 420.153 602.803 420.226 603.192 420.371C603.581 420.513 603.925 420.714 604.223 420.976C604.525 421.234 604.772 421.536 604.965 421.879C605.161 422.223 605.294 422.597 605.365 423ZM607.608 431.455C607.457 431.455 607.317 431.44 607.186 431.412C607.055 431.384 606.952 431.352 606.875 431.318L607.08 430.649C607.338 430.729 607.568 430.757 607.77 430.734C607.972 430.714 608.151 430.624 608.307 430.462C608.463 430.303 608.602 430.058 608.724 429.729L608.963 429.064L606.555 422.455H607.378L609.321 427.999H609.381L611.324 422.455H612.146L609.376 430.036C609.26 430.351 609.116 430.614 608.946 430.824C608.776 431.037 608.578 431.195 608.354 431.297C608.132 431.402 607.884 431.455 607.608 431.455ZM615.953 429.136C615.368 429.136 614.858 428.99 614.423 428.697C613.991 428.405 613.656 428.004 613.417 427.496C613.179 426.987 613.059 426.408 613.059 425.757C613.059 425.101 613.18 424.517 613.422 424.006C613.666 423.494 614.004 423.094 614.436 422.804C614.868 422.511 615.369 422.365 615.94 422.365C616.377 422.365 616.774 422.45 617.129 422.621C617.484 422.788 617.777 423.026 618.007 423.332C618.24 423.636 618.386 423.991 618.446 424.398H617.679C617.599 424.028 617.407 423.713 617.103 423.452C616.802 423.187 616.419 423.055 615.953 423.055C615.535 423.055 615.166 423.169 614.845 423.396C614.524 423.621 614.272 423.935 614.091 424.338C613.912 424.739 613.822 425.203 613.822 425.732C613.822 426.263 613.91 426.733 614.086 427.142C614.262 427.548 614.51 427.866 614.828 428.097C615.149 428.327 615.524 428.442 615.953 428.442C616.243 428.442 616.507 428.388 616.745 428.28C616.987 428.169 617.189 428.013 617.35 427.811C617.515 427.609 617.626 427.369 617.683 427.091H618.45C618.393 427.486 618.252 427.838 618.028 428.148C617.806 428.455 617.518 428.696 617.163 428.872C616.811 429.048 616.407 429.136 615.953 429.136ZM620.834 420.273V429H620.076V420.273H620.834ZM625.488 429.136C624.877 429.136 624.348 428.994 623.902 428.71C623.456 428.423 623.111 428.027 622.867 427.521C622.625 427.013 622.505 426.428 622.505 425.766C622.505 425.107 622.625 424.521 622.867 424.01C623.111 423.496 623.448 423.094 623.877 422.804C624.309 422.511 624.807 422.365 625.373 422.365C625.728 422.365 626.07 422.43 626.4 422.561C626.729 422.689 627.025 422.886 627.286 423.153C627.55 423.418 627.759 423.751 627.912 424.155C628.066 424.555 628.142 425.03 628.142 425.578V425.953H623.029V425.284H627.367C627.367 424.864 627.282 424.486 627.111 424.151C626.944 423.812 626.709 423.545 626.408 423.349C626.11 423.153 625.765 423.055 625.373 423.055C624.958 423.055 624.593 423.166 624.277 423.388C623.962 423.609 623.715 423.902 623.536 424.266C623.36 424.629 623.27 425.027 623.267 425.459V425.859C623.267 426.379 623.357 426.834 623.536 427.223C623.718 427.609 623.975 427.909 624.307 428.122C624.64 428.335 625.033 428.442 625.488 428.442C625.797 428.442 626.069 428.393 626.301 428.297C626.537 428.2 626.735 428.071 626.894 427.909C627.056 427.744 627.178 427.564 627.26 427.368L627.98 427.602C627.881 427.878 627.718 428.132 627.49 428.365C627.266 428.598 626.985 428.786 626.647 428.928C626.311 429.067 625.925 429.136 625.488 429.136ZM634.212 423.891L633.517 424.087C633.449 423.891 633.352 423.713 633.227 423.554C633.102 423.395 632.939 423.268 632.737 423.175C632.538 423.081 632.291 423.034 631.996 423.034C631.553 423.034 631.189 423.139 630.905 423.349C630.621 423.56 630.479 423.831 630.479 424.163C630.479 424.445 630.575 424.673 630.768 424.849C630.964 425.023 631.266 425.161 631.672 425.263L632.661 425.506C633.209 425.639 633.619 425.851 633.892 426.141C634.168 426.43 634.305 426.794 634.305 427.232C634.305 427.601 634.203 427.929 633.999 428.216C633.794 428.503 633.509 428.729 633.142 428.893C632.778 429.055 632.357 429.136 631.876 429.136C631.237 429.136 630.71 428.993 630.295 428.706C629.881 428.416 629.615 427.999 629.499 427.453L630.227 427.274C630.321 427.663 630.504 427.957 630.777 428.156C631.053 428.355 631.415 428.455 631.864 428.455C632.366 428.455 632.768 428.342 633.07 428.118C633.371 427.891 633.521 427.607 633.521 427.266C633.521 427.001 633.433 426.78 633.257 426.601C633.081 426.419 632.814 426.286 632.456 426.2L631.386 425.945C630.818 425.808 630.398 425.592 630.125 425.297C629.852 425.001 629.716 424.635 629.716 424.197C629.716 423.837 629.814 423.52 630.01 423.247C630.206 422.972 630.476 422.756 630.82 422.599C631.163 422.443 631.555 422.365 631.996 422.365C632.595 422.365 633.074 422.501 633.432 422.774C633.793 423.044 634.053 423.416 634.212 423.891Z" fill="black"/>
</g>
<path d="M208 391V261H383.5M383.5 261V391M383.5 261H619M619 261V324.5M619 261H853H876M876 261H1131V337.5M876 261V397" stroke="#CCCCCC" stroke-dasharray="12 12"/>
<path d="M351 140V0.999997H994V47.3333" stroke="#CCCCCC" stroke-dasharray="12 12"/>
<path d="M511 190H550" stroke="#CCCCCC" stroke-dasharray="12 12"/>
<path d="M542 425H515M431 481V425H458.5M458.5 425V485.5M458.5 425H488M488 425V483M488 425H515M515 425V485.5" stroke="#CCCCCC" stroke-dasharray="12 12"/>
<g filter="url(#filter2_d_755_18949)">
<rect x="925" y="227" width="320" height="67" rx="4" fill="white" shape-rendering="crispEdges"/>
<path d="M950.159 265V256.273H955.222V256.989H950.956V260.274H954.953V260.99H950.956V264.284H955.307V265H950.159ZM957.595 258.455L959.283 261.246L960.97 258.455H961.852L959.747 261.727L961.852 265H960.97L959.283 262.298L957.595 265H956.717L958.797 261.727L956.717 258.455H957.595ZM965.73 265.136C965.145 265.136 964.635 264.99 964.2 264.697C963.768 264.405 963.433 264.004 963.195 263.496C962.956 262.987 962.837 262.408 962.837 261.757C962.837 261.101 962.957 260.517 963.199 260.006C963.443 259.494 963.781 259.094 964.213 258.804C964.645 258.511 965.146 258.365 965.717 258.365C966.155 258.365 966.551 258.45 966.906 258.621C967.261 258.788 967.554 259.026 967.784 259.332C968.017 259.636 968.163 259.991 968.223 260.398H967.456C967.376 260.028 967.185 259.713 966.881 259.452C966.58 259.187 966.196 259.055 965.73 259.055C965.313 259.055 964.943 259.169 964.622 259.396C964.301 259.621 964.05 259.935 963.868 260.338C963.689 260.739 963.599 261.203 963.599 261.732C963.599 262.263 963.688 262.733 963.864 263.142C964.04 263.548 964.287 263.866 964.605 264.097C964.926 264.327 965.301 264.442 965.73 264.442C966.02 264.442 966.284 264.388 966.523 264.28C966.764 264.169 966.966 264.013 967.128 263.811C967.293 263.609 967.403 263.369 967.46 263.091H968.227C968.17 263.486 968.03 263.838 967.805 264.148C967.584 264.455 967.295 264.696 966.94 264.872C966.588 265.048 966.185 265.136 965.73 265.136ZM972.499 265.136C971.888 265.136 971.36 264.994 970.914 264.71C970.468 264.423 970.123 264.027 969.879 263.521C969.637 263.013 969.516 262.428 969.516 261.766C969.516 261.107 969.637 260.521 969.879 260.01C970.123 259.496 970.46 259.094 970.888 258.804C971.32 258.511 971.819 258.365 972.384 258.365C972.739 258.365 973.082 258.43 973.411 258.561C973.741 258.689 974.036 258.886 974.298 259.153C974.562 259.418 974.771 259.751 974.924 260.155C975.077 260.555 975.154 261.03 975.154 261.578V261.953H970.04V261.284H974.379C974.379 260.864 974.293 260.486 974.123 260.151C973.955 259.812 973.721 259.545 973.42 259.349C973.121 259.153 972.776 259.055 972.384 259.055C971.969 259.055 971.604 259.166 971.289 259.388C970.974 259.609 970.727 259.902 970.548 260.266C970.371 260.629 970.282 261.027 970.279 261.459V261.859C970.279 262.379 970.369 262.834 970.548 263.223C970.729 263.609 970.987 263.909 971.319 264.122C971.651 264.335 972.045 264.442 972.499 264.442C972.809 264.442 973.08 264.393 973.313 264.297C973.549 264.2 973.746 264.071 973.906 263.909C974.067 263.744 974.19 263.564 974.272 263.368L974.992 263.602C974.893 263.878 974.729 264.132 974.502 264.365C974.278 264.598 973.996 264.786 973.658 264.928C973.323 265.067 972.937 265.136 972.499 265.136ZM981.223 259.891L980.529 260.087C980.461 259.891 980.364 259.713 980.239 259.554C980.114 259.395 979.951 259.268 979.749 259.175C979.55 259.081 979.303 259.034 979.007 259.034C978.564 259.034 978.201 259.139 977.917 259.349C977.632 259.56 977.49 259.831 977.49 260.163C977.49 260.445 977.587 260.673 977.78 260.849C977.976 261.023 978.277 261.161 978.684 261.263L979.672 261.506C980.221 261.639 980.631 261.851 980.904 262.141C981.179 262.43 981.317 262.794 981.317 263.232C981.317 263.601 981.215 263.929 981.01 264.216C980.806 264.503 980.52 264.729 980.154 264.893C979.79 265.055 979.368 265.136 978.888 265.136C978.249 265.136 977.722 264.993 977.307 264.706C976.892 264.416 976.627 263.999 976.51 263.453L977.239 263.274C977.333 263.663 977.516 263.957 977.789 264.156C978.064 264.355 978.426 264.455 978.875 264.455C979.378 264.455 979.78 264.342 980.081 264.118C980.382 263.891 980.533 263.607 980.533 263.266C980.533 263.001 980.445 262.78 980.269 262.601C980.093 262.419 979.826 262.286 979.468 262.2L978.398 261.945C977.83 261.808 977.409 261.592 977.137 261.297C976.864 261.001 976.728 260.635 976.728 260.197C976.728 259.837 976.826 259.52 977.022 259.247C977.218 258.972 977.488 258.756 977.831 258.599C978.175 258.443 978.567 258.365 979.007 258.365C979.607 258.365 980.086 258.501 980.444 258.774C980.804 259.044 981.064 259.416 981.223 259.891ZM987.376 259.891L986.681 260.087C986.613 259.891 986.516 259.713 986.391 259.554C986.266 259.395 986.103 259.268 985.901 259.175C985.702 259.081 985.455 259.034 985.16 259.034C984.717 259.034 984.353 259.139 984.069 259.349C983.785 259.56 983.643 259.831 983.643 260.163C983.643 260.445 983.739 260.673 983.933 260.849C984.129 261.023 984.43 261.161 984.836 261.263L985.825 261.506C986.373 261.639 986.783 261.851 987.056 262.141C987.332 262.43 987.469 262.794 987.469 263.232C987.469 263.601 987.367 263.929 987.163 264.216C986.958 264.503 986.673 264.729 986.306 264.893C985.942 265.055 985.521 265.136 985.04 265.136C984.401 265.136 983.874 264.993 983.46 264.706C983.045 264.416 982.779 263.999 982.663 263.453L983.391 263.274C983.485 263.663 983.668 263.957 983.941 264.156C984.217 264.355 984.579 264.455 985.028 264.455C985.531 264.455 985.933 264.342 986.234 264.118C986.535 263.891 986.685 263.607 986.685 263.266C986.685 263.001 986.597 262.78 986.421 262.601C986.245 262.419 985.978 262.286 985.62 262.2L984.55 261.945C983.982 261.808 983.562 261.592 983.289 261.297C983.016 261.001 982.88 260.635 982.88 260.197C982.88 259.837 982.978 259.52 983.174 259.247C983.37 258.972 983.64 258.756 983.984 258.599C984.327 258.443 984.719 258.365 985.16 258.365C985.759 258.365 986.238 258.501 986.596 258.774C986.957 259.044 987.217 259.416 987.376 259.891ZM989.139 265V258.455H989.902V265H989.139ZM989.527 257.33C989.37 257.33 989.237 257.277 989.126 257.172C989.015 257.064 988.96 256.935 988.96 256.784C988.96 256.634 989.015 256.506 989.126 256.401C989.237 256.293 989.37 256.239 989.527 256.239C989.683 256.239 989.816 256.293 989.927 256.401C990.038 256.506 990.093 256.634 990.093 256.784C990.093 256.935 990.038 257.064 989.927 257.172C989.816 257.277 989.683 257.33 989.527 257.33ZM996.974 258.455L994.584 265H993.774L991.384 258.455H992.206L994.149 263.999H994.209L996.152 258.455H996.974ZM1000.87 265.136C1000.26 265.136 999.731 264.994 999.285 264.71C998.839 264.423 998.494 264.027 998.25 263.521C998.008 263.013 997.887 262.428 997.887 261.766C997.887 261.107 998.008 260.521 998.25 260.01C998.494 259.496 998.831 259.094 999.26 258.804C999.691 258.511 1000.19 258.365 1000.76 258.365C1001.11 258.365 1001.45 258.43 1001.78 258.561C1002.11 258.689 1002.41 258.886 1002.67 259.153C1002.93 259.418 1003.14 259.751 1003.3 260.155C1003.45 260.555 1003.53 261.03 1003.53 261.578V261.953H998.412V261.284H1002.75C1002.75 260.864 1002.66 260.486 1002.49 260.151C1002.33 259.812 1002.09 259.545 1001.79 259.349C1001.49 259.153 1001.15 259.055 1000.76 259.055C1000.34 259.055 999.975 259.166 999.66 259.388C999.345 259.609 999.098 259.902 998.919 260.266C998.743 260.629 998.653 261.027 998.65 261.459V261.859C998.65 262.379 998.74 262.834 998.919 263.223C999.1 263.609 999.358 263.909 999.69 264.122C1000.02 264.335 1000.42 264.442 1000.87 264.442C1001.18 264.442 1001.45 264.393 1001.68 264.297C1001.92 264.2 1002.12 264.071 1002.28 263.909C1002.44 263.744 1002.56 263.564 1002.64 263.368L1003.36 263.602C1003.26 263.878 1003.1 264.132 1002.87 264.365C1002.65 264.598 1002.37 264.786 1002.03 264.928C1001.69 265.067 1001.31 265.136 1000.87 265.136ZM1008.73 265V256.273H1011.55C1012.17 256.273 1012.68 256.385 1013.1 256.609C1013.51 256.831 1013.83 257.139 1014.04 257.534C1014.25 257.926 1014.36 258.376 1014.36 258.885C1014.36 259.393 1014.25 259.842 1014.04 260.232C1013.83 260.621 1013.52 260.925 1013.1 261.143C1012.69 261.362 1012.17 261.472 1011.56 261.472H1009.16V260.743H1011.54C1011.99 260.743 1012.37 260.668 1012.67 260.517C1012.98 260.366 1013.2 260.152 1013.35 259.874C1013.5 259.595 1013.57 259.266 1013.57 258.885C1013.57 258.504 1013.5 258.172 1013.35 257.888C1013.2 257.601 1012.97 257.379 1012.67 257.223C1012.37 257.067 1011.99 256.989 1011.52 256.989H1009.53V265H1008.73ZM1012.58 261.062L1014.73 265H1013.8L1011.68 261.062H1012.58ZM1020.3 262.499V258.455H1021.06V265H1020.3V263.913H1020.24C1020.09 264.249 1019.85 264.528 1019.51 264.753C1019.18 264.974 1018.77 265.085 1018.29 265.085C1017.88 265.085 1017.51 264.994 1017.18 264.812C1016.86 264.628 1016.6 264.358 1016.42 264.003C1016.23 263.648 1016.14 263.212 1016.14 262.695V258.455H1016.9V262.648C1016.9 263.159 1017.05 263.571 1017.35 263.884C1017.65 264.193 1018.04 264.348 1018.51 264.348C1018.81 264.348 1019.09 264.277 1019.36 264.135C1019.64 263.993 1019.86 263.786 1020.04 263.513C1020.21 263.237 1020.3 262.899 1020.3 262.499ZM1023.83 260.909V265H1023.07V258.455H1023.81V259.482H1023.87C1024.03 259.146 1024.27 258.878 1024.59 258.676C1024.92 258.472 1025.32 258.369 1025.8 258.369C1026.24 258.369 1026.63 258.462 1026.96 258.646C1027.29 258.828 1027.55 259.097 1027.74 259.452C1027.93 259.807 1028.02 260.243 1028.02 260.76V265H1027.26V260.807C1027.26 260.27 1027.11 259.845 1026.81 259.533C1026.51 259.22 1026.11 259.064 1025.61 259.064C1025.26 259.064 1024.96 259.138 1024.69 259.286C1024.42 259.433 1024.21 259.646 1024.06 259.925C1023.9 260.2 1023.83 260.528 1023.83 260.909ZM1032.6 258.455V259.115H1029.47V258.455H1032.6ZM1030.45 256.886H1031.21V263.291C1031.21 263.564 1031.26 263.778 1031.35 263.935C1031.44 264.088 1031.57 264.197 1031.72 264.263C1031.87 264.325 1032.03 264.357 1032.2 264.357C1032.3 264.357 1032.38 264.351 1032.45 264.339C1032.53 264.325 1032.59 264.311 1032.64 264.297L1032.8 264.983C1032.73 265.011 1032.64 265.037 1032.53 265.06C1032.42 265.085 1032.29 265.098 1032.13 265.098C1031.85 265.098 1031.58 265.037 1031.33 264.915C1031.07 264.793 1030.86 264.611 1030.69 264.369C1030.53 264.128 1030.45 263.828 1030.45 263.47V256.886ZM1034.33 265V258.455H1035.09V265H1034.33ZM1034.71 257.33C1034.56 257.33 1034.42 257.277 1034.31 257.172C1034.2 257.064 1034.15 256.935 1034.15 256.784C1034.15 256.634 1034.2 256.506 1034.31 256.401C1034.42 256.293 1034.56 256.239 1034.71 256.239C1034.87 256.239 1035 256.293 1035.11 256.401C1035.23 256.506 1035.28 256.634 1035.28 256.784C1035.28 256.935 1035.23 257.064 1035.11 257.172C1035 257.277 1034.87 257.33 1034.71 257.33ZM1037.1 265V258.455H1037.83V259.46H1037.9C1038.03 259.122 1038.25 258.857 1038.55 258.663C1038.86 258.467 1039.23 258.369 1039.66 258.369C1040.11 258.369 1040.48 258.476 1040.77 258.689C1041.06 258.899 1041.28 259.189 1041.42 259.558H1041.48C1041.63 259.195 1041.87 258.906 1042.2 258.693C1042.54 258.477 1042.94 258.369 1043.42 258.369C1044.03 258.369 1044.51 258.561 1044.86 258.945C1045.21 259.325 1045.39 259.882 1045.39 260.615V265H1044.63V260.615C1044.63 260.098 1044.5 259.71 1044.23 259.452C1043.97 259.193 1043.62 259.064 1043.19 259.064C1042.69 259.064 1042.3 259.217 1042.03 259.524C1041.76 259.831 1041.63 260.22 1041.63 260.692V265H1040.85V260.547C1040.85 260.104 1040.73 259.746 1040.48 259.473C1040.24 259.2 1039.89 259.064 1039.44 259.064C1039.14 259.064 1038.87 259.138 1038.62 259.286C1038.39 259.433 1038.2 259.639 1038.06 259.903C1037.92 260.165 1037.85 260.466 1037.85 260.807V265H1037.1ZM1050.04 265.136C1049.43 265.136 1048.9 264.994 1048.46 264.71C1048.01 264.423 1047.67 264.027 1047.42 263.521C1047.18 263.013 1047.06 262.428 1047.06 261.766C1047.06 261.107 1047.18 260.521 1047.42 260.01C1047.67 259.496 1048 259.094 1048.43 258.804C1048.86 258.511 1049.36 258.365 1049.93 258.365C1050.28 258.365 1050.62 258.43 1050.95 258.561C1051.28 258.689 1051.58 258.886 1051.84 259.153C1052.1 259.418 1052.31 259.751 1052.47 260.155C1052.62 260.555 1052.7 261.03 1052.7 261.578V261.953H1047.58V261.284H1051.92C1051.92 260.864 1051.84 260.486 1051.67 260.151C1051.5 259.812 1051.26 259.545 1050.96 259.349C1050.66 259.153 1050.32 259.055 1049.93 259.055C1049.51 259.055 1049.15 259.166 1048.83 259.388C1048.52 259.609 1048.27 259.902 1048.09 260.266C1047.91 260.629 1047.82 261.027 1047.82 261.459V261.859C1047.82 262.379 1047.91 262.834 1048.09 263.223C1048.27 263.609 1048.53 263.909 1048.86 264.122C1049.19 264.335 1049.59 264.442 1050.04 264.442C1050.35 264.442 1050.62 264.393 1050.86 264.297C1051.09 264.2 1051.29 264.071 1051.45 263.909C1051.61 263.744 1051.73 263.564 1051.81 263.368L1052.54 263.602C1052.44 263.878 1052.27 264.132 1052.05 264.365C1051.82 264.598 1051.54 264.786 1051.2 264.928C1050.87 265.067 1050.48 265.136 1050.04 265.136Z" fill="black"/>
</g>
<defs>
<filter id="filter0_d_755_18949" x="187" y="141" width="328" height="94" filterUnits="userSpaceOnUse" color-interpolation-filters="sRGB">
<feFlood flood-opacity="0" result="BackgroundImageFix"/>
<feColorMatrix in="SourceAlpha" type="matrix" values="0 0 0 0 0 0 0 0 0 0 0 0 0 0 0 0 0 0 127 0" result="hardAlpha"/>
<feMorphology radius="4" operator="erode" in="SourceAlpha" result="effect1_dropShadow_755_18949"/>
<feOffset dy="4"/>
<feGaussianBlur stdDeviation="4"/>
<feComposite in2="hardAlpha" operator="out"/>
<feColorMatrix type="matrix" values="0 0 0 0 0 0 0 0 0 0 0 0 0 0 0 0 0 0 0.16 0"/>
<feBlend mode="normal" in2="BackgroundImageFix" result="effect1_dropShadow_755_18949"/>
<feBlend mode="normal" in="SourceGraphic" in2="effect1_dropShadow_755_18949" result="shape"/>
</filter>
<filter id="filter1_d_755_18949" x="538" y="391" width="328" height="75" filterUnits="userSpaceOnUse" color-interpolation-filters="sRGB">
<feFlood flood-opacity="0" result="BackgroundImageFix"/>
<feColorMatrix in="SourceAlpha" type="matrix" values="0 0 0 0 0 0 0 0 0 0 0 0 0 0 0 0 0 0 127 0" result="hardAlpha"/>
<feMorphology radius="4" operator="erode" in="SourceAlpha" result="effect1_dropShadow_755_18949"/>
<feOffset dy="4"/>
<feGaussianBlur stdDeviation="4"/>
<feComposite in2="hardAlpha" operator="out"/>
<feColorMatrix type="matrix" values="0 0 0 0 0 0 0 0 0 0 0 0 0 0 0 0 0 0 0.16 0"/>
<feBlend mode="normal" in2="BackgroundImageFix" result="effect1_dropShadow_755_18949"/>
<feBlend mode="normal" in="SourceGraphic" in2="effect1_dropShadow_755_18949" result="shape"/>
</filter>
<filter id="filter2_d_755_18949" x="921" y="227" width="328" height="75" filterUnits="userSpaceOnUse" color-interpolation-filters="sRGB">
<feFlood flood-opacity="0" result="BackgroundImageFix"/>
<feColorMatrix in="SourceAlpha" type="matrix" values="0 0 0 0 0 0 0 0 0 0 0 0 0 0 0 0 0 0 127 0" result="hardAlpha"/>
<feMorphology radius="4" operator="erode" in="SourceAlpha" result="effect1_dropShadow_755_18949"/>
<feOffset dy="4"/>
<feGaussianBlur stdDeviation="4"/>
<feComposite in2="hardAlpha" operator="out"/>
<feColorMatrix type="matrix" values="0 0 0 0 0 0 0 0 0 0 0 0 0 0 0 0 0 0 0.16 0"/>
<feBlend mode="normal" in2="BackgroundImageFix" result="effect1_dropShadow_755_18949"/>
<feBlend mode="normal" in="SourceGraphic" in2="effect1_dropShadow_755_18949" result="shape"/>
</filter>
</defs>
</svg>
